G04 #@! TF.GenerationSoftware,KiCad,Pcbnew,(5.0.2)-1*
G04 #@! TF.CreationDate,2020-03-01T15:29:14+01:00*
G04 #@! TF.ProjectId,Ampli,416d706c-692e-46b6-9963-61645f706362,rev?*
G04 #@! TF.SameCoordinates,Original*
G04 #@! TF.FileFunction,Legend,Top*
G04 #@! TF.FilePolarity,Positive*
%FSLAX46Y46*%
G04 Gerber Fmt 4.6, Leading zero omitted, Abs format (unit mm)*
G04 Created by KiCad (PCBNEW (5.0.2)-1) date 01/03/2020 15:29:14*
%MOMM*%
%LPD*%
G01*
G04 APERTURE LIST*
%ADD10C,0.120000*%
%ADD11C,0.150000*%
G04 APERTURE END LIST*
D10*
G04 #@! TO.C,C1*
X78915000Y-110250302D02*
X78115000Y-110250302D01*
X78515000Y-109850302D02*
X78515000Y-110650302D01*
X76733000Y-118341000D02*
X75667000Y-118341000D01*
X76968000Y-118301000D02*
X75432000Y-118301000D01*
X77148000Y-118261000D02*
X75252000Y-118261000D01*
X77298000Y-118221000D02*
X75102000Y-118221000D01*
X77429000Y-118181000D02*
X74971000Y-118181000D01*
X77546000Y-118141000D02*
X74854000Y-118141000D01*
X77653000Y-118101000D02*
X74747000Y-118101000D01*
X77752000Y-118061000D02*
X74648000Y-118061000D01*
X77845000Y-118021000D02*
X74555000Y-118021000D01*
X77931000Y-117981000D02*
X74469000Y-117981000D01*
X78013000Y-117941000D02*
X74387000Y-117941000D01*
X78090000Y-117901000D02*
X74310000Y-117901000D01*
X78164000Y-117861000D02*
X74236000Y-117861000D01*
X78234000Y-117821000D02*
X74166000Y-117821000D01*
X75160000Y-117781000D02*
X74098000Y-117781000D01*
X78302000Y-117781000D02*
X77240000Y-117781000D01*
X75160000Y-117741000D02*
X74034000Y-117741000D01*
X78366000Y-117741000D02*
X77240000Y-117741000D01*
X75160000Y-117701000D02*
X73972000Y-117701000D01*
X78428000Y-117701000D02*
X77240000Y-117701000D01*
X75160000Y-117661000D02*
X73913000Y-117661000D01*
X78487000Y-117661000D02*
X77240000Y-117661000D01*
X75160000Y-117621000D02*
X73855000Y-117621000D01*
X78545000Y-117621000D02*
X77240000Y-117621000D01*
X75160000Y-117581000D02*
X73800000Y-117581000D01*
X78600000Y-117581000D02*
X77240000Y-117581000D01*
X75160000Y-117541000D02*
X73746000Y-117541000D01*
X78654000Y-117541000D02*
X77240000Y-117541000D01*
X75160000Y-117501000D02*
X73695000Y-117501000D01*
X78705000Y-117501000D02*
X77240000Y-117501000D01*
X75160000Y-117461000D02*
X73644000Y-117461000D01*
X78756000Y-117461000D02*
X77240000Y-117461000D01*
X75160000Y-117421000D02*
X73596000Y-117421000D01*
X78804000Y-117421000D02*
X77240000Y-117421000D01*
X75160000Y-117381000D02*
X73549000Y-117381000D01*
X78851000Y-117381000D02*
X77240000Y-117381000D01*
X75160000Y-117341000D02*
X73503000Y-117341000D01*
X78897000Y-117341000D02*
X77240000Y-117341000D01*
X75160000Y-117301000D02*
X73459000Y-117301000D01*
X78941000Y-117301000D02*
X77240000Y-117301000D01*
X75160000Y-117261000D02*
X73416000Y-117261000D01*
X78984000Y-117261000D02*
X77240000Y-117261000D01*
X75160000Y-117221000D02*
X73374000Y-117221000D01*
X79026000Y-117221000D02*
X77240000Y-117221000D01*
X75160000Y-117181000D02*
X73333000Y-117181000D01*
X79067000Y-117181000D02*
X77240000Y-117181000D01*
X75160000Y-117141000D02*
X73293000Y-117141000D01*
X79107000Y-117141000D02*
X77240000Y-117141000D01*
X75160000Y-117101000D02*
X73255000Y-117101000D01*
X79145000Y-117101000D02*
X77240000Y-117101000D01*
X75160000Y-117061000D02*
X73217000Y-117061000D01*
X79183000Y-117061000D02*
X77240000Y-117061000D01*
X75160000Y-117021000D02*
X73181000Y-117021000D01*
X79219000Y-117021000D02*
X77240000Y-117021000D01*
X75160000Y-116981000D02*
X73145000Y-116981000D01*
X79255000Y-116981000D02*
X77240000Y-116981000D01*
X75160000Y-116941000D02*
X73110000Y-116941000D01*
X79290000Y-116941000D02*
X77240000Y-116941000D01*
X75160000Y-116901000D02*
X73076000Y-116901000D01*
X79324000Y-116901000D02*
X77240000Y-116901000D01*
X75160000Y-116861000D02*
X73044000Y-116861000D01*
X79356000Y-116861000D02*
X77240000Y-116861000D01*
X75160000Y-116821000D02*
X73011000Y-116821000D01*
X79389000Y-116821000D02*
X77240000Y-116821000D01*
X75160000Y-116781000D02*
X72980000Y-116781000D01*
X79420000Y-116781000D02*
X77240000Y-116781000D01*
X75160000Y-116741000D02*
X72950000Y-116741000D01*
X79450000Y-116741000D02*
X77240000Y-116741000D01*
X75160000Y-116701000D02*
X72920000Y-116701000D01*
X79480000Y-116701000D02*
X77240000Y-116701000D01*
X75160000Y-116661000D02*
X72891000Y-116661000D01*
X79509000Y-116661000D02*
X77240000Y-116661000D01*
X75160000Y-116621000D02*
X72862000Y-116621000D01*
X79538000Y-116621000D02*
X77240000Y-116621000D01*
X75160000Y-116581000D02*
X72835000Y-116581000D01*
X79565000Y-116581000D02*
X77240000Y-116581000D01*
X75160000Y-116541000D02*
X72808000Y-116541000D01*
X79592000Y-116541000D02*
X77240000Y-116541000D01*
X75160000Y-116501000D02*
X72782000Y-116501000D01*
X79618000Y-116501000D02*
X77240000Y-116501000D01*
X75160000Y-116461000D02*
X72756000Y-116461000D01*
X79644000Y-116461000D02*
X77240000Y-116461000D01*
X75160000Y-116421000D02*
X72731000Y-116421000D01*
X79669000Y-116421000D02*
X77240000Y-116421000D01*
X75160000Y-116381000D02*
X72707000Y-116381000D01*
X79693000Y-116381000D02*
X77240000Y-116381000D01*
X75160000Y-116341000D02*
X72683000Y-116341000D01*
X79717000Y-116341000D02*
X77240000Y-116341000D01*
X75160000Y-116301000D02*
X72660000Y-116301000D01*
X79740000Y-116301000D02*
X77240000Y-116301000D01*
X75160000Y-116261000D02*
X72638000Y-116261000D01*
X79762000Y-116261000D02*
X77240000Y-116261000D01*
X75160000Y-116221000D02*
X72616000Y-116221000D01*
X79784000Y-116221000D02*
X77240000Y-116221000D01*
X75160000Y-116181000D02*
X72594000Y-116181000D01*
X79806000Y-116181000D02*
X77240000Y-116181000D01*
X75160000Y-116141000D02*
X72573000Y-116141000D01*
X79827000Y-116141000D02*
X77240000Y-116141000D01*
X75160000Y-116101000D02*
X72553000Y-116101000D01*
X79847000Y-116101000D02*
X77240000Y-116101000D01*
X75160000Y-116061000D02*
X72534000Y-116061000D01*
X79866000Y-116061000D02*
X77240000Y-116061000D01*
X75160000Y-116021000D02*
X72514000Y-116021000D01*
X79886000Y-116021000D02*
X77240000Y-116021000D01*
X75160000Y-115981000D02*
X72496000Y-115981000D01*
X79904000Y-115981000D02*
X77240000Y-115981000D01*
X75160000Y-115941000D02*
X72478000Y-115941000D01*
X79922000Y-115941000D02*
X77240000Y-115941000D01*
X75160000Y-115901000D02*
X72460000Y-115901000D01*
X79940000Y-115901000D02*
X77240000Y-115901000D01*
X75160000Y-115861000D02*
X72443000Y-115861000D01*
X79957000Y-115861000D02*
X77240000Y-115861000D01*
X75160000Y-115821000D02*
X72426000Y-115821000D01*
X79974000Y-115821000D02*
X77240000Y-115821000D01*
X75160000Y-115781000D02*
X72410000Y-115781000D01*
X79990000Y-115781000D02*
X77240000Y-115781000D01*
X75160000Y-115741000D02*
X72395000Y-115741000D01*
X80005000Y-115741000D02*
X77240000Y-115741000D01*
X80021000Y-115701000D02*
X72379000Y-115701000D01*
X80035000Y-115661000D02*
X72365000Y-115661000D01*
X80050000Y-115621000D02*
X72350000Y-115621000D01*
X80063000Y-115581000D02*
X72337000Y-115581000D01*
X80077000Y-115541000D02*
X72323000Y-115541000D01*
X80089000Y-115501000D02*
X72311000Y-115501000D01*
X80102000Y-115461000D02*
X72298000Y-115461000D01*
X80114000Y-115421000D02*
X72286000Y-115421000D01*
X80125000Y-115381000D02*
X72275000Y-115381000D01*
X80136000Y-115341000D02*
X72264000Y-115341000D01*
X80147000Y-115301000D02*
X72253000Y-115301000D01*
X80157000Y-115261000D02*
X72243000Y-115261000D01*
X80167000Y-115221000D02*
X72233000Y-115221000D01*
X80176000Y-115181000D02*
X72224000Y-115181000D01*
X80185000Y-115141000D02*
X72215000Y-115141000D01*
X80194000Y-115101000D02*
X72206000Y-115101000D01*
X80202000Y-115061000D02*
X72198000Y-115061000D01*
X80210000Y-115021000D02*
X72190000Y-115021000D01*
X80217000Y-114981000D02*
X72183000Y-114981000D01*
X80224000Y-114940000D02*
X72176000Y-114940000D01*
X80230000Y-114900000D02*
X72170000Y-114900000D01*
X80237000Y-114860000D02*
X72163000Y-114860000D01*
X80242000Y-114820000D02*
X72158000Y-114820000D01*
X80248000Y-114780000D02*
X72152000Y-114780000D01*
X80252000Y-114740000D02*
X72148000Y-114740000D01*
X80257000Y-114700000D02*
X72143000Y-114700000D01*
X80261000Y-114660000D02*
X72139000Y-114660000D01*
X80265000Y-114620000D02*
X72135000Y-114620000D01*
X80268000Y-114580000D02*
X72132000Y-114580000D01*
X80271000Y-114540000D02*
X72129000Y-114540000D01*
X80274000Y-114500000D02*
X72126000Y-114500000D01*
X80276000Y-114460000D02*
X72124000Y-114460000D01*
X80277000Y-114420000D02*
X72123000Y-114420000D01*
X80279000Y-114380000D02*
X72121000Y-114380000D01*
X80280000Y-114340000D02*
X72120000Y-114340000D01*
X80280000Y-114300000D02*
X72120000Y-114300000D01*
X80280000Y-114260000D02*
X72120000Y-114260000D01*
X80320000Y-114260000D02*
G75*
G03X80320000Y-114260000I-4120000J0D01*
G01*
G04 #@! TO.C,C2*
X102740000Y-108870000D02*
X102740000Y-112110000D01*
X95300000Y-108870000D02*
X95300000Y-112110000D01*
X95300000Y-112110000D02*
X102740000Y-112110000D01*
X95300000Y-108870000D02*
X102740000Y-108870000D01*
G04 #@! TO.C,C3*
X98060000Y-67310000D02*
G75*
G03X98060000Y-67310000I-4120000J0D01*
G01*
X93940000Y-63230000D02*
X93940000Y-71390000D01*
X93980000Y-63230000D02*
X93980000Y-71390000D01*
X94020000Y-63230000D02*
X94020000Y-71390000D01*
X94060000Y-63231000D02*
X94060000Y-71389000D01*
X94100000Y-63233000D02*
X94100000Y-71387000D01*
X94140000Y-63234000D02*
X94140000Y-71386000D01*
X94180000Y-63236000D02*
X94180000Y-71384000D01*
X94220000Y-63239000D02*
X94220000Y-71381000D01*
X94260000Y-63242000D02*
X94260000Y-71378000D01*
X94300000Y-63245000D02*
X94300000Y-71375000D01*
X94340000Y-63249000D02*
X94340000Y-71371000D01*
X94380000Y-63253000D02*
X94380000Y-71367000D01*
X94420000Y-63258000D02*
X94420000Y-71362000D01*
X94460000Y-63262000D02*
X94460000Y-71358000D01*
X94500000Y-63268000D02*
X94500000Y-71352000D01*
X94540000Y-63273000D02*
X94540000Y-71347000D01*
X94580000Y-63280000D02*
X94580000Y-71340000D01*
X94620000Y-63286000D02*
X94620000Y-71334000D01*
X94661000Y-63293000D02*
X94661000Y-71327000D01*
X94701000Y-63300000D02*
X94701000Y-71320000D01*
X94741000Y-63308000D02*
X94741000Y-71312000D01*
X94781000Y-63316000D02*
X94781000Y-71304000D01*
X94821000Y-63325000D02*
X94821000Y-71295000D01*
X94861000Y-63334000D02*
X94861000Y-71286000D01*
X94901000Y-63343000D02*
X94901000Y-71277000D01*
X94941000Y-63353000D02*
X94941000Y-71267000D01*
X94981000Y-63363000D02*
X94981000Y-71257000D01*
X95021000Y-63374000D02*
X95021000Y-71246000D01*
X95061000Y-63385000D02*
X95061000Y-71235000D01*
X95101000Y-63396000D02*
X95101000Y-71224000D01*
X95141000Y-63408000D02*
X95141000Y-71212000D01*
X95181000Y-63421000D02*
X95181000Y-71199000D01*
X95221000Y-63433000D02*
X95221000Y-71187000D01*
X95261000Y-63447000D02*
X95261000Y-71173000D01*
X95301000Y-63460000D02*
X95301000Y-71160000D01*
X95341000Y-63475000D02*
X95341000Y-71145000D01*
X95381000Y-63489000D02*
X95381000Y-71131000D01*
X95421000Y-63505000D02*
X95421000Y-66270000D01*
X95421000Y-68350000D02*
X95421000Y-71115000D01*
X95461000Y-63520000D02*
X95461000Y-66270000D01*
X95461000Y-68350000D02*
X95461000Y-71100000D01*
X95501000Y-63536000D02*
X95501000Y-66270000D01*
X95501000Y-68350000D02*
X95501000Y-71084000D01*
X95541000Y-63553000D02*
X95541000Y-66270000D01*
X95541000Y-68350000D02*
X95541000Y-71067000D01*
X95581000Y-63570000D02*
X95581000Y-66270000D01*
X95581000Y-68350000D02*
X95581000Y-71050000D01*
X95621000Y-63588000D02*
X95621000Y-66270000D01*
X95621000Y-68350000D02*
X95621000Y-71032000D01*
X95661000Y-63606000D02*
X95661000Y-66270000D01*
X95661000Y-68350000D02*
X95661000Y-71014000D01*
X95701000Y-63624000D02*
X95701000Y-66270000D01*
X95701000Y-68350000D02*
X95701000Y-70996000D01*
X95741000Y-63644000D02*
X95741000Y-66270000D01*
X95741000Y-68350000D02*
X95741000Y-70976000D01*
X95781000Y-63663000D02*
X95781000Y-66270000D01*
X95781000Y-68350000D02*
X95781000Y-70957000D01*
X95821000Y-63683000D02*
X95821000Y-66270000D01*
X95821000Y-68350000D02*
X95821000Y-70937000D01*
X95861000Y-63704000D02*
X95861000Y-66270000D01*
X95861000Y-68350000D02*
X95861000Y-70916000D01*
X95901000Y-63726000D02*
X95901000Y-66270000D01*
X95901000Y-68350000D02*
X95901000Y-70894000D01*
X95941000Y-63748000D02*
X95941000Y-66270000D01*
X95941000Y-68350000D02*
X95941000Y-70872000D01*
X95981000Y-63770000D02*
X95981000Y-66270000D01*
X95981000Y-68350000D02*
X95981000Y-70850000D01*
X96021000Y-63793000D02*
X96021000Y-66270000D01*
X96021000Y-68350000D02*
X96021000Y-70827000D01*
X96061000Y-63817000D02*
X96061000Y-66270000D01*
X96061000Y-68350000D02*
X96061000Y-70803000D01*
X96101000Y-63841000D02*
X96101000Y-66270000D01*
X96101000Y-68350000D02*
X96101000Y-70779000D01*
X96141000Y-63866000D02*
X96141000Y-66270000D01*
X96141000Y-68350000D02*
X96141000Y-70754000D01*
X96181000Y-63892000D02*
X96181000Y-66270000D01*
X96181000Y-68350000D02*
X96181000Y-70728000D01*
X96221000Y-63918000D02*
X96221000Y-66270000D01*
X96221000Y-68350000D02*
X96221000Y-70702000D01*
X96261000Y-63945000D02*
X96261000Y-66270000D01*
X96261000Y-68350000D02*
X96261000Y-70675000D01*
X96301000Y-63972000D02*
X96301000Y-66270000D01*
X96301000Y-68350000D02*
X96301000Y-70648000D01*
X96341000Y-64001000D02*
X96341000Y-66270000D01*
X96341000Y-68350000D02*
X96341000Y-70619000D01*
X96381000Y-64030000D02*
X96381000Y-66270000D01*
X96381000Y-68350000D02*
X96381000Y-70590000D01*
X96421000Y-64060000D02*
X96421000Y-66270000D01*
X96421000Y-68350000D02*
X96421000Y-70560000D01*
X96461000Y-64090000D02*
X96461000Y-66270000D01*
X96461000Y-68350000D02*
X96461000Y-70530000D01*
X96501000Y-64121000D02*
X96501000Y-66270000D01*
X96501000Y-68350000D02*
X96501000Y-70499000D01*
X96541000Y-64154000D02*
X96541000Y-66270000D01*
X96541000Y-68350000D02*
X96541000Y-70466000D01*
X96581000Y-64186000D02*
X96581000Y-66270000D01*
X96581000Y-68350000D02*
X96581000Y-70434000D01*
X96621000Y-64220000D02*
X96621000Y-66270000D01*
X96621000Y-68350000D02*
X96621000Y-70400000D01*
X96661000Y-64255000D02*
X96661000Y-66270000D01*
X96661000Y-68350000D02*
X96661000Y-70365000D01*
X96701000Y-64291000D02*
X96701000Y-66270000D01*
X96701000Y-68350000D02*
X96701000Y-70329000D01*
X96741000Y-64327000D02*
X96741000Y-66270000D01*
X96741000Y-68350000D02*
X96741000Y-70293000D01*
X96781000Y-64365000D02*
X96781000Y-66270000D01*
X96781000Y-68350000D02*
X96781000Y-70255000D01*
X96821000Y-64403000D02*
X96821000Y-66270000D01*
X96821000Y-68350000D02*
X96821000Y-70217000D01*
X96861000Y-64443000D02*
X96861000Y-66270000D01*
X96861000Y-68350000D02*
X96861000Y-70177000D01*
X96901000Y-64484000D02*
X96901000Y-66270000D01*
X96901000Y-68350000D02*
X96901000Y-70136000D01*
X96941000Y-64526000D02*
X96941000Y-66270000D01*
X96941000Y-68350000D02*
X96941000Y-70094000D01*
X96981000Y-64569000D02*
X96981000Y-66270000D01*
X96981000Y-68350000D02*
X96981000Y-70051000D01*
X97021000Y-64613000D02*
X97021000Y-66270000D01*
X97021000Y-68350000D02*
X97021000Y-70007000D01*
X97061000Y-64659000D02*
X97061000Y-66270000D01*
X97061000Y-68350000D02*
X97061000Y-69961000D01*
X97101000Y-64706000D02*
X97101000Y-66270000D01*
X97101000Y-68350000D02*
X97101000Y-69914000D01*
X97141000Y-64754000D02*
X97141000Y-66270000D01*
X97141000Y-68350000D02*
X97141000Y-69866000D01*
X97181000Y-64805000D02*
X97181000Y-66270000D01*
X97181000Y-68350000D02*
X97181000Y-69815000D01*
X97221000Y-64856000D02*
X97221000Y-66270000D01*
X97221000Y-68350000D02*
X97221000Y-69764000D01*
X97261000Y-64910000D02*
X97261000Y-66270000D01*
X97261000Y-68350000D02*
X97261000Y-69710000D01*
X97301000Y-64965000D02*
X97301000Y-66270000D01*
X97301000Y-68350000D02*
X97301000Y-69655000D01*
X97341000Y-65023000D02*
X97341000Y-66270000D01*
X97341000Y-68350000D02*
X97341000Y-69597000D01*
X97381000Y-65082000D02*
X97381000Y-66270000D01*
X97381000Y-68350000D02*
X97381000Y-69538000D01*
X97421000Y-65144000D02*
X97421000Y-66270000D01*
X97421000Y-68350000D02*
X97421000Y-69476000D01*
X97461000Y-65208000D02*
X97461000Y-66270000D01*
X97461000Y-68350000D02*
X97461000Y-69412000D01*
X97501000Y-65276000D02*
X97501000Y-69344000D01*
X97541000Y-65346000D02*
X97541000Y-69274000D01*
X97581000Y-65420000D02*
X97581000Y-69200000D01*
X97621000Y-65497000D02*
X97621000Y-69123000D01*
X97661000Y-65579000D02*
X97661000Y-69041000D01*
X97701000Y-65665000D02*
X97701000Y-68955000D01*
X97741000Y-65758000D02*
X97741000Y-68862000D01*
X97781000Y-65857000D02*
X97781000Y-68763000D01*
X97821000Y-65964000D02*
X97821000Y-68656000D01*
X97861000Y-66081000D02*
X97861000Y-68539000D01*
X97901000Y-66212000D02*
X97901000Y-68408000D01*
X97941000Y-66362000D02*
X97941000Y-68258000D01*
X97981000Y-66542000D02*
X97981000Y-68078000D01*
X98021000Y-66777000D02*
X98021000Y-67843000D01*
X89530302Y-64995000D02*
X90330302Y-64995000D01*
X89930302Y-64595000D02*
X89930302Y-65395000D01*
G04 #@! TO.C,C4*
X36590302Y-67135000D02*
X36590302Y-67935000D01*
X36190302Y-67535000D02*
X36990302Y-67535000D01*
X44681000Y-69317000D02*
X44681000Y-70383000D01*
X44641000Y-69082000D02*
X44641000Y-70618000D01*
X44601000Y-68902000D02*
X44601000Y-70798000D01*
X44561000Y-68752000D02*
X44561000Y-70948000D01*
X44521000Y-68621000D02*
X44521000Y-71079000D01*
X44481000Y-68504000D02*
X44481000Y-71196000D01*
X44441000Y-68397000D02*
X44441000Y-71303000D01*
X44401000Y-68298000D02*
X44401000Y-71402000D01*
X44361000Y-68205000D02*
X44361000Y-71495000D01*
X44321000Y-68119000D02*
X44321000Y-71581000D01*
X44281000Y-68037000D02*
X44281000Y-71663000D01*
X44241000Y-67960000D02*
X44241000Y-71740000D01*
X44201000Y-67886000D02*
X44201000Y-71814000D01*
X44161000Y-67816000D02*
X44161000Y-71884000D01*
X44121000Y-70890000D02*
X44121000Y-71952000D01*
X44121000Y-67748000D02*
X44121000Y-68810000D01*
X44081000Y-70890000D02*
X44081000Y-72016000D01*
X44081000Y-67684000D02*
X44081000Y-68810000D01*
X44041000Y-70890000D02*
X44041000Y-72078000D01*
X44041000Y-67622000D02*
X44041000Y-68810000D01*
X44001000Y-70890000D02*
X44001000Y-72137000D01*
X44001000Y-67563000D02*
X44001000Y-68810000D01*
X43961000Y-70890000D02*
X43961000Y-72195000D01*
X43961000Y-67505000D02*
X43961000Y-68810000D01*
X43921000Y-70890000D02*
X43921000Y-72250000D01*
X43921000Y-67450000D02*
X43921000Y-68810000D01*
X43881000Y-70890000D02*
X43881000Y-72304000D01*
X43881000Y-67396000D02*
X43881000Y-68810000D01*
X43841000Y-70890000D02*
X43841000Y-72355000D01*
X43841000Y-67345000D02*
X43841000Y-68810000D01*
X43801000Y-70890000D02*
X43801000Y-72406000D01*
X43801000Y-67294000D02*
X43801000Y-68810000D01*
X43761000Y-70890000D02*
X43761000Y-72454000D01*
X43761000Y-67246000D02*
X43761000Y-68810000D01*
X43721000Y-70890000D02*
X43721000Y-72501000D01*
X43721000Y-67199000D02*
X43721000Y-68810000D01*
X43681000Y-70890000D02*
X43681000Y-72547000D01*
X43681000Y-67153000D02*
X43681000Y-68810000D01*
X43641000Y-70890000D02*
X43641000Y-72591000D01*
X43641000Y-67109000D02*
X43641000Y-68810000D01*
X43601000Y-70890000D02*
X43601000Y-72634000D01*
X43601000Y-67066000D02*
X43601000Y-68810000D01*
X43561000Y-70890000D02*
X43561000Y-72676000D01*
X43561000Y-67024000D02*
X43561000Y-68810000D01*
X43521000Y-70890000D02*
X43521000Y-72717000D01*
X43521000Y-66983000D02*
X43521000Y-68810000D01*
X43481000Y-70890000D02*
X43481000Y-72757000D01*
X43481000Y-66943000D02*
X43481000Y-68810000D01*
X43441000Y-70890000D02*
X43441000Y-72795000D01*
X43441000Y-66905000D02*
X43441000Y-68810000D01*
X43401000Y-70890000D02*
X43401000Y-72833000D01*
X43401000Y-66867000D02*
X43401000Y-68810000D01*
X43361000Y-70890000D02*
X43361000Y-72869000D01*
X43361000Y-66831000D02*
X43361000Y-68810000D01*
X43321000Y-70890000D02*
X43321000Y-72905000D01*
X43321000Y-66795000D02*
X43321000Y-68810000D01*
X43281000Y-70890000D02*
X43281000Y-72940000D01*
X43281000Y-66760000D02*
X43281000Y-68810000D01*
X43241000Y-70890000D02*
X43241000Y-72974000D01*
X43241000Y-66726000D02*
X43241000Y-68810000D01*
X43201000Y-70890000D02*
X43201000Y-73006000D01*
X43201000Y-66694000D02*
X43201000Y-68810000D01*
X43161000Y-70890000D02*
X43161000Y-73039000D01*
X43161000Y-66661000D02*
X43161000Y-68810000D01*
X43121000Y-70890000D02*
X43121000Y-73070000D01*
X43121000Y-66630000D02*
X43121000Y-68810000D01*
X43081000Y-70890000D02*
X43081000Y-73100000D01*
X43081000Y-66600000D02*
X43081000Y-68810000D01*
X43041000Y-70890000D02*
X43041000Y-73130000D01*
X43041000Y-66570000D02*
X43041000Y-68810000D01*
X43001000Y-70890000D02*
X43001000Y-73159000D01*
X43001000Y-66541000D02*
X43001000Y-68810000D01*
X42961000Y-70890000D02*
X42961000Y-73188000D01*
X42961000Y-66512000D02*
X42961000Y-68810000D01*
X42921000Y-70890000D02*
X42921000Y-73215000D01*
X42921000Y-66485000D02*
X42921000Y-68810000D01*
X42881000Y-70890000D02*
X42881000Y-73242000D01*
X42881000Y-66458000D02*
X42881000Y-68810000D01*
X42841000Y-70890000D02*
X42841000Y-73268000D01*
X42841000Y-66432000D02*
X42841000Y-68810000D01*
X42801000Y-70890000D02*
X42801000Y-73294000D01*
X42801000Y-66406000D02*
X42801000Y-68810000D01*
X42761000Y-70890000D02*
X42761000Y-73319000D01*
X42761000Y-66381000D02*
X42761000Y-68810000D01*
X42721000Y-70890000D02*
X42721000Y-73343000D01*
X42721000Y-66357000D02*
X42721000Y-68810000D01*
X42681000Y-70890000D02*
X42681000Y-73367000D01*
X42681000Y-66333000D02*
X42681000Y-68810000D01*
X42641000Y-70890000D02*
X42641000Y-73390000D01*
X42641000Y-66310000D02*
X42641000Y-68810000D01*
X42601000Y-70890000D02*
X42601000Y-73412000D01*
X42601000Y-66288000D02*
X42601000Y-68810000D01*
X42561000Y-70890000D02*
X42561000Y-73434000D01*
X42561000Y-66266000D02*
X42561000Y-68810000D01*
X42521000Y-70890000D02*
X42521000Y-73456000D01*
X42521000Y-66244000D02*
X42521000Y-68810000D01*
X42481000Y-70890000D02*
X42481000Y-73477000D01*
X42481000Y-66223000D02*
X42481000Y-68810000D01*
X42441000Y-70890000D02*
X42441000Y-73497000D01*
X42441000Y-66203000D02*
X42441000Y-68810000D01*
X42401000Y-70890000D02*
X42401000Y-73516000D01*
X42401000Y-66184000D02*
X42401000Y-68810000D01*
X42361000Y-70890000D02*
X42361000Y-73536000D01*
X42361000Y-66164000D02*
X42361000Y-68810000D01*
X42321000Y-70890000D02*
X42321000Y-73554000D01*
X42321000Y-66146000D02*
X42321000Y-68810000D01*
X42281000Y-70890000D02*
X42281000Y-73572000D01*
X42281000Y-66128000D02*
X42281000Y-68810000D01*
X42241000Y-70890000D02*
X42241000Y-73590000D01*
X42241000Y-66110000D02*
X42241000Y-68810000D01*
X42201000Y-70890000D02*
X42201000Y-73607000D01*
X42201000Y-66093000D02*
X42201000Y-68810000D01*
X42161000Y-70890000D02*
X42161000Y-73624000D01*
X42161000Y-66076000D02*
X42161000Y-68810000D01*
X42121000Y-70890000D02*
X42121000Y-73640000D01*
X42121000Y-66060000D02*
X42121000Y-68810000D01*
X42081000Y-70890000D02*
X42081000Y-73655000D01*
X42081000Y-66045000D02*
X42081000Y-68810000D01*
X42041000Y-66029000D02*
X42041000Y-73671000D01*
X42001000Y-66015000D02*
X42001000Y-73685000D01*
X41961000Y-66000000D02*
X41961000Y-73700000D01*
X41921000Y-65987000D02*
X41921000Y-73713000D01*
X41881000Y-65973000D02*
X41881000Y-73727000D01*
X41841000Y-65961000D02*
X41841000Y-73739000D01*
X41801000Y-65948000D02*
X41801000Y-73752000D01*
X41761000Y-65936000D02*
X41761000Y-73764000D01*
X41721000Y-65925000D02*
X41721000Y-73775000D01*
X41681000Y-65914000D02*
X41681000Y-73786000D01*
X41641000Y-65903000D02*
X41641000Y-73797000D01*
X41601000Y-65893000D02*
X41601000Y-73807000D01*
X41561000Y-65883000D02*
X41561000Y-73817000D01*
X41521000Y-65874000D02*
X41521000Y-73826000D01*
X41481000Y-65865000D02*
X41481000Y-73835000D01*
X41441000Y-65856000D02*
X41441000Y-73844000D01*
X41401000Y-65848000D02*
X41401000Y-73852000D01*
X41361000Y-65840000D02*
X41361000Y-73860000D01*
X41321000Y-65833000D02*
X41321000Y-73867000D01*
X41280000Y-65826000D02*
X41280000Y-73874000D01*
X41240000Y-65820000D02*
X41240000Y-73880000D01*
X41200000Y-65813000D02*
X41200000Y-73887000D01*
X41160000Y-65808000D02*
X41160000Y-73892000D01*
X41120000Y-65802000D02*
X41120000Y-73898000D01*
X41080000Y-65798000D02*
X41080000Y-73902000D01*
X41040000Y-65793000D02*
X41040000Y-73907000D01*
X41000000Y-65789000D02*
X41000000Y-73911000D01*
X40960000Y-65785000D02*
X40960000Y-73915000D01*
X40920000Y-65782000D02*
X40920000Y-73918000D01*
X40880000Y-65779000D02*
X40880000Y-73921000D01*
X40840000Y-65776000D02*
X40840000Y-73924000D01*
X40800000Y-65774000D02*
X40800000Y-73926000D01*
X40760000Y-65773000D02*
X40760000Y-73927000D01*
X40720000Y-65771000D02*
X40720000Y-73929000D01*
X40680000Y-65770000D02*
X40680000Y-73930000D01*
X40640000Y-65770000D02*
X40640000Y-73930000D01*
X40600000Y-65770000D02*
X40600000Y-73930000D01*
X44720000Y-69850000D02*
G75*
G03X44720000Y-69850000I-4120000J0D01*
G01*
G04 #@! TO.C,C5*
X47910000Y-73610000D02*
X47910000Y-66170000D01*
X51150000Y-73610000D02*
X51150000Y-66170000D01*
X47910000Y-73610000D02*
X51150000Y-73610000D01*
X47910000Y-66170000D02*
X51150000Y-66170000D01*
G04 #@! TO.C,C6*
X136240000Y-71120000D02*
G75*
G03X136240000Y-71120000I-4120000J0D01*
G01*
X132120000Y-75200000D02*
X132120000Y-67040000D01*
X132080000Y-75200000D02*
X132080000Y-67040000D01*
X132040000Y-75200000D02*
X132040000Y-67040000D01*
X132000000Y-75199000D02*
X132000000Y-67041000D01*
X131960000Y-75197000D02*
X131960000Y-67043000D01*
X131920000Y-75196000D02*
X131920000Y-67044000D01*
X131880000Y-75194000D02*
X131880000Y-67046000D01*
X131840000Y-75191000D02*
X131840000Y-67049000D01*
X131800000Y-75188000D02*
X131800000Y-67052000D01*
X131760000Y-75185000D02*
X131760000Y-67055000D01*
X131720000Y-75181000D02*
X131720000Y-67059000D01*
X131680000Y-75177000D02*
X131680000Y-67063000D01*
X131640000Y-75172000D02*
X131640000Y-67068000D01*
X131600000Y-75168000D02*
X131600000Y-67072000D01*
X131560000Y-75162000D02*
X131560000Y-67078000D01*
X131520000Y-75157000D02*
X131520000Y-67083000D01*
X131480000Y-75150000D02*
X131480000Y-67090000D01*
X131440000Y-75144000D02*
X131440000Y-67096000D01*
X131399000Y-75137000D02*
X131399000Y-67103000D01*
X131359000Y-75130000D02*
X131359000Y-67110000D01*
X131319000Y-75122000D02*
X131319000Y-67118000D01*
X131279000Y-75114000D02*
X131279000Y-67126000D01*
X131239000Y-75105000D02*
X131239000Y-67135000D01*
X131199000Y-75096000D02*
X131199000Y-67144000D01*
X131159000Y-75087000D02*
X131159000Y-67153000D01*
X131119000Y-75077000D02*
X131119000Y-67163000D01*
X131079000Y-75067000D02*
X131079000Y-67173000D01*
X131039000Y-75056000D02*
X131039000Y-67184000D01*
X130999000Y-75045000D02*
X130999000Y-67195000D01*
X130959000Y-75034000D02*
X130959000Y-67206000D01*
X130919000Y-75022000D02*
X130919000Y-67218000D01*
X130879000Y-75009000D02*
X130879000Y-67231000D01*
X130839000Y-74997000D02*
X130839000Y-67243000D01*
X130799000Y-74983000D02*
X130799000Y-67257000D01*
X130759000Y-74970000D02*
X130759000Y-67270000D01*
X130719000Y-74955000D02*
X130719000Y-67285000D01*
X130679000Y-74941000D02*
X130679000Y-67299000D01*
X130639000Y-74925000D02*
X130639000Y-72160000D01*
X130639000Y-70080000D02*
X130639000Y-67315000D01*
X130599000Y-74910000D02*
X130599000Y-72160000D01*
X130599000Y-70080000D02*
X130599000Y-67330000D01*
X130559000Y-74894000D02*
X130559000Y-72160000D01*
X130559000Y-70080000D02*
X130559000Y-67346000D01*
X130519000Y-74877000D02*
X130519000Y-72160000D01*
X130519000Y-70080000D02*
X130519000Y-67363000D01*
X130479000Y-74860000D02*
X130479000Y-72160000D01*
X130479000Y-70080000D02*
X130479000Y-67380000D01*
X130439000Y-74842000D02*
X130439000Y-72160000D01*
X130439000Y-70080000D02*
X130439000Y-67398000D01*
X130399000Y-74824000D02*
X130399000Y-72160000D01*
X130399000Y-70080000D02*
X130399000Y-67416000D01*
X130359000Y-74806000D02*
X130359000Y-72160000D01*
X130359000Y-70080000D02*
X130359000Y-67434000D01*
X130319000Y-74786000D02*
X130319000Y-72160000D01*
X130319000Y-70080000D02*
X130319000Y-67454000D01*
X130279000Y-74767000D02*
X130279000Y-72160000D01*
X130279000Y-70080000D02*
X130279000Y-67473000D01*
X130239000Y-74747000D02*
X130239000Y-72160000D01*
X130239000Y-70080000D02*
X130239000Y-67493000D01*
X130199000Y-74726000D02*
X130199000Y-72160000D01*
X130199000Y-70080000D02*
X130199000Y-67514000D01*
X130159000Y-74704000D02*
X130159000Y-72160000D01*
X130159000Y-70080000D02*
X130159000Y-67536000D01*
X130119000Y-74682000D02*
X130119000Y-72160000D01*
X130119000Y-70080000D02*
X130119000Y-67558000D01*
X130079000Y-74660000D02*
X130079000Y-72160000D01*
X130079000Y-70080000D02*
X130079000Y-67580000D01*
X130039000Y-74637000D02*
X130039000Y-72160000D01*
X130039000Y-70080000D02*
X130039000Y-67603000D01*
X129999000Y-74613000D02*
X129999000Y-72160000D01*
X129999000Y-70080000D02*
X129999000Y-67627000D01*
X129959000Y-74589000D02*
X129959000Y-72160000D01*
X129959000Y-70080000D02*
X129959000Y-67651000D01*
X129919000Y-74564000D02*
X129919000Y-72160000D01*
X129919000Y-70080000D02*
X129919000Y-67676000D01*
X129879000Y-74538000D02*
X129879000Y-72160000D01*
X129879000Y-70080000D02*
X129879000Y-67702000D01*
X129839000Y-74512000D02*
X129839000Y-72160000D01*
X129839000Y-70080000D02*
X129839000Y-67728000D01*
X129799000Y-74485000D02*
X129799000Y-72160000D01*
X129799000Y-70080000D02*
X129799000Y-67755000D01*
X129759000Y-74458000D02*
X129759000Y-72160000D01*
X129759000Y-70080000D02*
X129759000Y-67782000D01*
X129719000Y-74429000D02*
X129719000Y-72160000D01*
X129719000Y-70080000D02*
X129719000Y-67811000D01*
X129679000Y-74400000D02*
X129679000Y-72160000D01*
X129679000Y-70080000D02*
X129679000Y-67840000D01*
X129639000Y-74370000D02*
X129639000Y-72160000D01*
X129639000Y-70080000D02*
X129639000Y-67870000D01*
X129599000Y-74340000D02*
X129599000Y-72160000D01*
X129599000Y-70080000D02*
X129599000Y-67900000D01*
X129559000Y-74309000D02*
X129559000Y-72160000D01*
X129559000Y-70080000D02*
X129559000Y-67931000D01*
X129519000Y-74276000D02*
X129519000Y-72160000D01*
X129519000Y-70080000D02*
X129519000Y-67964000D01*
X129479000Y-74244000D02*
X129479000Y-72160000D01*
X129479000Y-70080000D02*
X129479000Y-67996000D01*
X129439000Y-74210000D02*
X129439000Y-72160000D01*
X129439000Y-70080000D02*
X129439000Y-68030000D01*
X129399000Y-74175000D02*
X129399000Y-72160000D01*
X129399000Y-70080000D02*
X129399000Y-68065000D01*
X129359000Y-74139000D02*
X129359000Y-72160000D01*
X129359000Y-70080000D02*
X129359000Y-68101000D01*
X129319000Y-74103000D02*
X129319000Y-72160000D01*
X129319000Y-70080000D02*
X129319000Y-68137000D01*
X129279000Y-74065000D02*
X129279000Y-72160000D01*
X129279000Y-70080000D02*
X129279000Y-68175000D01*
X129239000Y-74027000D02*
X129239000Y-72160000D01*
X129239000Y-70080000D02*
X129239000Y-68213000D01*
X129199000Y-73987000D02*
X129199000Y-72160000D01*
X129199000Y-70080000D02*
X129199000Y-68253000D01*
X129159000Y-73946000D02*
X129159000Y-72160000D01*
X129159000Y-70080000D02*
X129159000Y-68294000D01*
X129119000Y-73904000D02*
X129119000Y-72160000D01*
X129119000Y-70080000D02*
X129119000Y-68336000D01*
X129079000Y-73861000D02*
X129079000Y-72160000D01*
X129079000Y-70080000D02*
X129079000Y-68379000D01*
X129039000Y-73817000D02*
X129039000Y-72160000D01*
X129039000Y-70080000D02*
X129039000Y-68423000D01*
X128999000Y-73771000D02*
X128999000Y-72160000D01*
X128999000Y-70080000D02*
X128999000Y-68469000D01*
X128959000Y-73724000D02*
X128959000Y-72160000D01*
X128959000Y-70080000D02*
X128959000Y-68516000D01*
X128919000Y-73676000D02*
X128919000Y-72160000D01*
X128919000Y-70080000D02*
X128919000Y-68564000D01*
X128879000Y-73625000D02*
X128879000Y-72160000D01*
X128879000Y-70080000D02*
X128879000Y-68615000D01*
X128839000Y-73574000D02*
X128839000Y-72160000D01*
X128839000Y-70080000D02*
X128839000Y-68666000D01*
X128799000Y-73520000D02*
X128799000Y-72160000D01*
X128799000Y-70080000D02*
X128799000Y-68720000D01*
X128759000Y-73465000D02*
X128759000Y-72160000D01*
X128759000Y-70080000D02*
X128759000Y-68775000D01*
X128719000Y-73407000D02*
X128719000Y-72160000D01*
X128719000Y-70080000D02*
X128719000Y-68833000D01*
X128679000Y-73348000D02*
X128679000Y-72160000D01*
X128679000Y-70080000D02*
X128679000Y-68892000D01*
X128639000Y-73286000D02*
X128639000Y-72160000D01*
X128639000Y-70080000D02*
X128639000Y-68954000D01*
X128599000Y-73222000D02*
X128599000Y-72160000D01*
X128599000Y-70080000D02*
X128599000Y-69018000D01*
X128559000Y-73154000D02*
X128559000Y-69086000D01*
X128519000Y-73084000D02*
X128519000Y-69156000D01*
X128479000Y-73010000D02*
X128479000Y-69230000D01*
X128439000Y-72933000D02*
X128439000Y-69307000D01*
X128399000Y-72851000D02*
X128399000Y-69389000D01*
X128359000Y-72765000D02*
X128359000Y-69475000D01*
X128319000Y-72672000D02*
X128319000Y-69568000D01*
X128279000Y-72573000D02*
X128279000Y-69667000D01*
X128239000Y-72466000D02*
X128239000Y-69774000D01*
X128199000Y-72349000D02*
X128199000Y-69891000D01*
X128159000Y-72218000D02*
X128159000Y-70022000D01*
X128119000Y-72068000D02*
X128119000Y-70172000D01*
X128079000Y-71888000D02*
X128079000Y-70352000D01*
X128039000Y-71653000D02*
X128039000Y-70587000D01*
X136529698Y-73435000D02*
X135729698Y-73435000D01*
X136129698Y-73835000D02*
X136129698Y-73035000D01*
G04 #@! TO.C,C7*
X135840000Y-82900000D02*
X128400000Y-82900000D01*
X135840000Y-79660000D02*
X128400000Y-79660000D01*
X135840000Y-82900000D02*
X135840000Y-79660000D01*
X128400000Y-82900000D02*
X128400000Y-79660000D01*
G04 #@! TO.C,C8*
X36947918Y-35170000D02*
X36947918Y-36420000D01*
X36322918Y-35795000D02*
X37572918Y-35795000D01*
X49501000Y-39053000D02*
X49501000Y-39687000D01*
X49461000Y-38613000D02*
X49461000Y-40127000D01*
X49421000Y-38342000D02*
X49421000Y-40398000D01*
X49381000Y-38129000D02*
X49381000Y-40611000D01*
X49341000Y-37948000D02*
X49341000Y-40792000D01*
X49301000Y-37787000D02*
X49301000Y-40953000D01*
X49261000Y-37642000D02*
X49261000Y-41098000D01*
X49221000Y-37509000D02*
X49221000Y-41231000D01*
X49181000Y-37386000D02*
X49181000Y-41354000D01*
X49141000Y-37270000D02*
X49141000Y-41470000D01*
X49101000Y-37161000D02*
X49101000Y-41579000D01*
X49061000Y-37058000D02*
X49061000Y-41682000D01*
X49021000Y-36960000D02*
X49021000Y-41780000D01*
X48981000Y-36866000D02*
X48981000Y-41874000D01*
X48941000Y-36776000D02*
X48941000Y-41964000D01*
X48901000Y-36689000D02*
X48901000Y-42051000D01*
X48861000Y-36606000D02*
X48861000Y-42134000D01*
X48821000Y-36526000D02*
X48821000Y-42214000D01*
X48781000Y-36449000D02*
X48781000Y-42291000D01*
X48741000Y-36374000D02*
X48741000Y-42366000D01*
X48701000Y-36301000D02*
X48701000Y-42439000D01*
X48661000Y-36230000D02*
X48661000Y-42510000D01*
X48621000Y-36162000D02*
X48621000Y-42578000D01*
X48581000Y-36095000D02*
X48581000Y-42645000D01*
X48541000Y-36031000D02*
X48541000Y-42709000D01*
X48501000Y-35968000D02*
X48501000Y-42772000D01*
X48461000Y-35906000D02*
X48461000Y-42834000D01*
X48421000Y-35846000D02*
X48421000Y-42894000D01*
X48381000Y-35787000D02*
X48381000Y-42953000D01*
X48341000Y-35730000D02*
X48341000Y-43010000D01*
X48301000Y-35674000D02*
X48301000Y-43066000D01*
X48261000Y-35620000D02*
X48261000Y-43120000D01*
X48221000Y-35566000D02*
X48221000Y-43174000D01*
X48181000Y-35514000D02*
X48181000Y-43226000D01*
X48141000Y-35463000D02*
X48141000Y-43277000D01*
X48101000Y-35413000D02*
X48101000Y-43327000D01*
X48061000Y-35363000D02*
X48061000Y-43377000D01*
X48021000Y-35315000D02*
X48021000Y-43425000D01*
X47981000Y-35268000D02*
X47981000Y-43472000D01*
X47941000Y-35222000D02*
X47941000Y-43518000D01*
X47901000Y-35176000D02*
X47901000Y-43564000D01*
X47861000Y-35132000D02*
X47861000Y-43608000D01*
X47821000Y-35088000D02*
X47821000Y-43652000D01*
X47781000Y-35045000D02*
X47781000Y-43695000D01*
X47741000Y-35003000D02*
X47741000Y-43737000D01*
X47701000Y-34962000D02*
X47701000Y-43778000D01*
X47661000Y-34921000D02*
X47661000Y-43819000D01*
X47621000Y-34881000D02*
X47621000Y-43859000D01*
X47581000Y-34842000D02*
X47581000Y-43898000D01*
X47541000Y-34803000D02*
X47541000Y-43937000D01*
X47501000Y-34765000D02*
X47501000Y-43975000D01*
X47461000Y-34728000D02*
X47461000Y-44012000D01*
X47421000Y-34692000D02*
X47421000Y-44048000D01*
X47381000Y-34656000D02*
X47381000Y-44084000D01*
X47341000Y-34620000D02*
X47341000Y-44120000D01*
X47301000Y-34585000D02*
X47301000Y-44155000D01*
X47261000Y-34551000D02*
X47261000Y-44189000D01*
X47221000Y-34518000D02*
X47221000Y-44222000D01*
X47181000Y-34485000D02*
X47181000Y-44255000D01*
X47141000Y-34452000D02*
X47141000Y-44288000D01*
X47101000Y-34420000D02*
X47101000Y-44320000D01*
X47061000Y-40810000D02*
X47061000Y-44352000D01*
X47061000Y-34388000D02*
X47061000Y-37930000D01*
X47021000Y-40810000D02*
X47021000Y-44382000D01*
X47021000Y-34358000D02*
X47021000Y-37930000D01*
X46981000Y-40810000D02*
X46981000Y-44413000D01*
X46981000Y-34327000D02*
X46981000Y-37930000D01*
X46941000Y-40810000D02*
X46941000Y-44443000D01*
X46941000Y-34297000D02*
X46941000Y-37930000D01*
X46901000Y-40810000D02*
X46901000Y-44472000D01*
X46901000Y-34268000D02*
X46901000Y-37930000D01*
X46861000Y-40810000D02*
X46861000Y-44501000D01*
X46861000Y-34239000D02*
X46861000Y-37930000D01*
X46821000Y-40810000D02*
X46821000Y-44530000D01*
X46821000Y-34210000D02*
X46821000Y-37930000D01*
X46781000Y-40810000D02*
X46781000Y-44558000D01*
X46781000Y-34182000D02*
X46781000Y-37930000D01*
X46741000Y-40810000D02*
X46741000Y-44586000D01*
X46741000Y-34154000D02*
X46741000Y-37930000D01*
X46701000Y-40810000D02*
X46701000Y-44613000D01*
X46701000Y-34127000D02*
X46701000Y-37930000D01*
X46661000Y-40810000D02*
X46661000Y-44640000D01*
X46661000Y-34100000D02*
X46661000Y-37930000D01*
X46621000Y-40810000D02*
X46621000Y-44666000D01*
X46621000Y-34074000D02*
X46621000Y-37930000D01*
X46581000Y-40810000D02*
X46581000Y-44692000D01*
X46581000Y-34048000D02*
X46581000Y-37930000D01*
X46541000Y-40810000D02*
X46541000Y-44717000D01*
X46541000Y-34023000D02*
X46541000Y-37930000D01*
X46501000Y-40810000D02*
X46501000Y-44742000D01*
X46501000Y-33998000D02*
X46501000Y-37930000D01*
X46461000Y-40810000D02*
X46461000Y-44767000D01*
X46461000Y-33973000D02*
X46461000Y-37930000D01*
X46421000Y-40810000D02*
X46421000Y-44791000D01*
X46421000Y-33949000D02*
X46421000Y-37930000D01*
X46381000Y-40810000D02*
X46381000Y-44815000D01*
X46381000Y-33925000D02*
X46381000Y-37930000D01*
X46341000Y-40810000D02*
X46341000Y-44838000D01*
X46341000Y-33902000D02*
X46341000Y-37930000D01*
X46301000Y-40810000D02*
X46301000Y-44861000D01*
X46301000Y-33879000D02*
X46301000Y-37930000D01*
X46261000Y-40810000D02*
X46261000Y-44884000D01*
X46261000Y-33856000D02*
X46261000Y-37930000D01*
X46221000Y-40810000D02*
X46221000Y-44906000D01*
X46221000Y-33834000D02*
X46221000Y-37930000D01*
X46181000Y-40810000D02*
X46181000Y-44928000D01*
X46181000Y-33812000D02*
X46181000Y-37930000D01*
X46141000Y-40810000D02*
X46141000Y-44950000D01*
X46141000Y-33790000D02*
X46141000Y-37930000D01*
X46101000Y-40810000D02*
X46101000Y-44971000D01*
X46101000Y-33769000D02*
X46101000Y-37930000D01*
X46061000Y-40810000D02*
X46061000Y-44992000D01*
X46061000Y-33748000D02*
X46061000Y-37930000D01*
X46021000Y-40810000D02*
X46021000Y-45012000D01*
X46021000Y-33728000D02*
X46021000Y-37930000D01*
X45981000Y-40810000D02*
X45981000Y-45032000D01*
X45981000Y-33708000D02*
X45981000Y-37930000D01*
X45941000Y-40810000D02*
X45941000Y-45052000D01*
X45941000Y-33688000D02*
X45941000Y-37930000D01*
X45901000Y-40810000D02*
X45901000Y-45072000D01*
X45901000Y-33668000D02*
X45901000Y-37930000D01*
X45861000Y-40810000D02*
X45861000Y-45091000D01*
X45861000Y-33649000D02*
X45861000Y-37930000D01*
X45821000Y-40810000D02*
X45821000Y-45109000D01*
X45821000Y-33631000D02*
X45821000Y-37930000D01*
X45781000Y-40810000D02*
X45781000Y-45128000D01*
X45781000Y-33612000D02*
X45781000Y-37930000D01*
X45741000Y-40810000D02*
X45741000Y-45146000D01*
X45741000Y-33594000D02*
X45741000Y-37930000D01*
X45701000Y-40810000D02*
X45701000Y-45163000D01*
X45701000Y-33577000D02*
X45701000Y-37930000D01*
X45661000Y-40810000D02*
X45661000Y-45181000D01*
X45661000Y-33559000D02*
X45661000Y-37930000D01*
X45621000Y-40810000D02*
X45621000Y-45198000D01*
X45621000Y-33542000D02*
X45621000Y-37930000D01*
X45581000Y-40810000D02*
X45581000Y-45215000D01*
X45581000Y-33525000D02*
X45581000Y-37930000D01*
X45541000Y-40810000D02*
X45541000Y-45231000D01*
X45541000Y-33509000D02*
X45541000Y-37930000D01*
X45501000Y-40810000D02*
X45501000Y-45247000D01*
X45501000Y-33493000D02*
X45501000Y-37930000D01*
X45461000Y-40810000D02*
X45461000Y-45263000D01*
X45461000Y-33477000D02*
X45461000Y-37930000D01*
X45421000Y-40810000D02*
X45421000Y-45278000D01*
X45421000Y-33462000D02*
X45421000Y-37930000D01*
X45381000Y-40810000D02*
X45381000Y-45294000D01*
X45381000Y-33446000D02*
X45381000Y-37930000D01*
X45341000Y-40810000D02*
X45341000Y-45309000D01*
X45341000Y-33431000D02*
X45341000Y-37930000D01*
X45301000Y-40810000D02*
X45301000Y-45323000D01*
X45301000Y-33417000D02*
X45301000Y-37930000D01*
X45261000Y-40810000D02*
X45261000Y-45337000D01*
X45261000Y-33403000D02*
X45261000Y-37930000D01*
X45221000Y-40810000D02*
X45221000Y-45351000D01*
X45221000Y-33389000D02*
X45221000Y-37930000D01*
X45181000Y-40810000D02*
X45181000Y-45365000D01*
X45181000Y-33375000D02*
X45181000Y-37930000D01*
X45141000Y-40810000D02*
X45141000Y-45378000D01*
X45141000Y-33362000D02*
X45141000Y-37930000D01*
X45101000Y-40810000D02*
X45101000Y-45391000D01*
X45101000Y-33349000D02*
X45101000Y-37930000D01*
X45061000Y-40810000D02*
X45061000Y-45404000D01*
X45061000Y-33336000D02*
X45061000Y-37930000D01*
X45021000Y-40810000D02*
X45021000Y-45417000D01*
X45021000Y-33323000D02*
X45021000Y-37930000D01*
X44981000Y-40810000D02*
X44981000Y-45429000D01*
X44981000Y-33311000D02*
X44981000Y-37930000D01*
X44941000Y-40810000D02*
X44941000Y-45441000D01*
X44941000Y-33299000D02*
X44941000Y-37930000D01*
X44901000Y-40810000D02*
X44901000Y-45453000D01*
X44901000Y-33287000D02*
X44901000Y-37930000D01*
X44861000Y-40810000D02*
X44861000Y-45464000D01*
X44861000Y-33276000D02*
X44861000Y-37930000D01*
X44821000Y-40810000D02*
X44821000Y-45475000D01*
X44821000Y-33265000D02*
X44821000Y-37930000D01*
X44781000Y-40810000D02*
X44781000Y-45486000D01*
X44781000Y-33254000D02*
X44781000Y-37930000D01*
X44741000Y-40810000D02*
X44741000Y-45496000D01*
X44741000Y-33244000D02*
X44741000Y-37930000D01*
X44701000Y-40810000D02*
X44701000Y-45507000D01*
X44701000Y-33233000D02*
X44701000Y-37930000D01*
X44661000Y-40810000D02*
X44661000Y-45516000D01*
X44661000Y-33224000D02*
X44661000Y-37930000D01*
X44621000Y-40810000D02*
X44621000Y-45526000D01*
X44621000Y-33214000D02*
X44621000Y-37930000D01*
X44581000Y-40810000D02*
X44581000Y-45536000D01*
X44581000Y-33204000D02*
X44581000Y-37930000D01*
X44541000Y-40810000D02*
X44541000Y-45545000D01*
X44541000Y-33195000D02*
X44541000Y-37930000D01*
X44501000Y-40810000D02*
X44501000Y-45554000D01*
X44501000Y-33186000D02*
X44501000Y-37930000D01*
X44461000Y-40810000D02*
X44461000Y-45562000D01*
X44461000Y-33178000D02*
X44461000Y-37930000D01*
X44421000Y-40810000D02*
X44421000Y-45571000D01*
X44421000Y-33169000D02*
X44421000Y-37930000D01*
X44381000Y-40810000D02*
X44381000Y-45579000D01*
X44381000Y-33161000D02*
X44381000Y-37930000D01*
X44341000Y-40810000D02*
X44341000Y-45586000D01*
X44341000Y-33154000D02*
X44341000Y-37930000D01*
X44301000Y-40810000D02*
X44301000Y-45594000D01*
X44301000Y-33146000D02*
X44301000Y-37930000D01*
X44261000Y-40810000D02*
X44261000Y-45601000D01*
X44261000Y-33139000D02*
X44261000Y-37930000D01*
X44221000Y-40810000D02*
X44221000Y-45608000D01*
X44221000Y-33132000D02*
X44221000Y-37930000D01*
X44181000Y-33125000D02*
X44181000Y-45615000D01*
X44141000Y-33118000D02*
X44141000Y-45622000D01*
X44101000Y-33112000D02*
X44101000Y-45628000D01*
X44061000Y-33106000D02*
X44061000Y-45634000D01*
X44021000Y-33101000D02*
X44021000Y-45639000D01*
X43981000Y-33095000D02*
X43981000Y-45645000D01*
X43941000Y-33090000D02*
X43941000Y-45650000D01*
X43901000Y-33085000D02*
X43901000Y-45655000D01*
X43861000Y-33080000D02*
X43861000Y-45660000D01*
X43820000Y-33076000D02*
X43820000Y-45664000D01*
X43780000Y-33072000D02*
X43780000Y-45668000D01*
X43740000Y-33068000D02*
X43740000Y-45672000D01*
X43700000Y-33064000D02*
X43700000Y-45676000D01*
X43660000Y-33061000D02*
X43660000Y-45679000D01*
X43620000Y-33058000D02*
X43620000Y-45682000D01*
X43580000Y-33055000D02*
X43580000Y-45685000D01*
X43540000Y-33052000D02*
X43540000Y-45688000D01*
X43500000Y-33050000D02*
X43500000Y-45690000D01*
X43460000Y-33048000D02*
X43460000Y-45692000D01*
X43420000Y-33046000D02*
X43420000Y-45694000D01*
X43380000Y-33044000D02*
X43380000Y-45696000D01*
X43340000Y-33043000D02*
X43340000Y-45697000D01*
X43300000Y-33042000D02*
X43300000Y-45698000D01*
X43260000Y-33041000D02*
X43260000Y-45699000D01*
X43220000Y-33040000D02*
X43220000Y-45700000D01*
X43180000Y-33040000D02*
X43180000Y-45700000D01*
X43140000Y-33040000D02*
X43140000Y-45700000D01*
X49510000Y-39370000D02*
G75*
G03X49510000Y-39370000I-6370000J0D01*
G01*
G04 #@! TO.C,C9*
X130760000Y-32100000D02*
X123320000Y-32100000D01*
X130760000Y-28860000D02*
X123320000Y-28860000D01*
X130760000Y-32100000D02*
X130760000Y-28860000D01*
X123320000Y-32100000D02*
X123320000Y-28860000D01*
G04 #@! TO.C,C10*
X137140000Y-40640000D02*
G75*
G03X137140000Y-40640000I-6370000J0D01*
G01*
X130770000Y-34310000D02*
X130770000Y-46970000D01*
X130810000Y-34310000D02*
X130810000Y-46970000D01*
X130850000Y-34310000D02*
X130850000Y-46970000D01*
X130890000Y-34311000D02*
X130890000Y-46969000D01*
X130930000Y-34312000D02*
X130930000Y-46968000D01*
X130970000Y-34313000D02*
X130970000Y-46967000D01*
X131010000Y-34314000D02*
X131010000Y-46966000D01*
X131050000Y-34316000D02*
X131050000Y-46964000D01*
X131090000Y-34318000D02*
X131090000Y-46962000D01*
X131130000Y-34320000D02*
X131130000Y-46960000D01*
X131170000Y-34322000D02*
X131170000Y-46958000D01*
X131210000Y-34325000D02*
X131210000Y-46955000D01*
X131250000Y-34328000D02*
X131250000Y-46952000D01*
X131290000Y-34331000D02*
X131290000Y-46949000D01*
X131330000Y-34334000D02*
X131330000Y-46946000D01*
X131370000Y-34338000D02*
X131370000Y-46942000D01*
X131410000Y-34342000D02*
X131410000Y-46938000D01*
X131450000Y-34346000D02*
X131450000Y-46934000D01*
X131491000Y-34350000D02*
X131491000Y-46930000D01*
X131531000Y-34355000D02*
X131531000Y-46925000D01*
X131571000Y-34360000D02*
X131571000Y-46920000D01*
X131611000Y-34365000D02*
X131611000Y-46915000D01*
X131651000Y-34371000D02*
X131651000Y-46909000D01*
X131691000Y-34376000D02*
X131691000Y-46904000D01*
X131731000Y-34382000D02*
X131731000Y-46898000D01*
X131771000Y-34388000D02*
X131771000Y-46892000D01*
X131811000Y-34395000D02*
X131811000Y-46885000D01*
X131851000Y-34402000D02*
X131851000Y-39200000D01*
X131851000Y-42080000D02*
X131851000Y-46878000D01*
X131891000Y-34409000D02*
X131891000Y-39200000D01*
X131891000Y-42080000D02*
X131891000Y-46871000D01*
X131931000Y-34416000D02*
X131931000Y-39200000D01*
X131931000Y-42080000D02*
X131931000Y-46864000D01*
X131971000Y-34424000D02*
X131971000Y-39200000D01*
X131971000Y-42080000D02*
X131971000Y-46856000D01*
X132011000Y-34431000D02*
X132011000Y-39200000D01*
X132011000Y-42080000D02*
X132011000Y-46849000D01*
X132051000Y-34439000D02*
X132051000Y-39200000D01*
X132051000Y-42080000D02*
X132051000Y-46841000D01*
X132091000Y-34448000D02*
X132091000Y-39200000D01*
X132091000Y-42080000D02*
X132091000Y-46832000D01*
X132131000Y-34456000D02*
X132131000Y-39200000D01*
X132131000Y-42080000D02*
X132131000Y-46824000D01*
X132171000Y-34465000D02*
X132171000Y-39200000D01*
X132171000Y-42080000D02*
X132171000Y-46815000D01*
X132211000Y-34474000D02*
X132211000Y-39200000D01*
X132211000Y-42080000D02*
X132211000Y-46806000D01*
X132251000Y-34484000D02*
X132251000Y-39200000D01*
X132251000Y-42080000D02*
X132251000Y-46796000D01*
X132291000Y-34494000D02*
X132291000Y-39200000D01*
X132291000Y-42080000D02*
X132291000Y-46786000D01*
X132331000Y-34503000D02*
X132331000Y-39200000D01*
X132331000Y-42080000D02*
X132331000Y-46777000D01*
X132371000Y-34514000D02*
X132371000Y-39200000D01*
X132371000Y-42080000D02*
X132371000Y-46766000D01*
X132411000Y-34524000D02*
X132411000Y-39200000D01*
X132411000Y-42080000D02*
X132411000Y-46756000D01*
X132451000Y-34535000D02*
X132451000Y-39200000D01*
X132451000Y-42080000D02*
X132451000Y-46745000D01*
X132491000Y-34546000D02*
X132491000Y-39200000D01*
X132491000Y-42080000D02*
X132491000Y-46734000D01*
X132531000Y-34557000D02*
X132531000Y-39200000D01*
X132531000Y-42080000D02*
X132531000Y-46723000D01*
X132571000Y-34569000D02*
X132571000Y-39200000D01*
X132571000Y-42080000D02*
X132571000Y-46711000D01*
X132611000Y-34581000D02*
X132611000Y-39200000D01*
X132611000Y-42080000D02*
X132611000Y-46699000D01*
X132651000Y-34593000D02*
X132651000Y-39200000D01*
X132651000Y-42080000D02*
X132651000Y-46687000D01*
X132691000Y-34606000D02*
X132691000Y-39200000D01*
X132691000Y-42080000D02*
X132691000Y-46674000D01*
X132731000Y-34619000D02*
X132731000Y-39200000D01*
X132731000Y-42080000D02*
X132731000Y-46661000D01*
X132771000Y-34632000D02*
X132771000Y-39200000D01*
X132771000Y-42080000D02*
X132771000Y-46648000D01*
X132811000Y-34645000D02*
X132811000Y-39200000D01*
X132811000Y-42080000D02*
X132811000Y-46635000D01*
X132851000Y-34659000D02*
X132851000Y-39200000D01*
X132851000Y-42080000D02*
X132851000Y-46621000D01*
X132891000Y-34673000D02*
X132891000Y-39200000D01*
X132891000Y-42080000D02*
X132891000Y-46607000D01*
X132931000Y-34687000D02*
X132931000Y-39200000D01*
X132931000Y-42080000D02*
X132931000Y-46593000D01*
X132971000Y-34701000D02*
X132971000Y-39200000D01*
X132971000Y-42080000D02*
X132971000Y-46579000D01*
X133011000Y-34716000D02*
X133011000Y-39200000D01*
X133011000Y-42080000D02*
X133011000Y-46564000D01*
X133051000Y-34732000D02*
X133051000Y-39200000D01*
X133051000Y-42080000D02*
X133051000Y-46548000D01*
X133091000Y-34747000D02*
X133091000Y-39200000D01*
X133091000Y-42080000D02*
X133091000Y-46533000D01*
X133131000Y-34763000D02*
X133131000Y-39200000D01*
X133131000Y-42080000D02*
X133131000Y-46517000D01*
X133171000Y-34779000D02*
X133171000Y-39200000D01*
X133171000Y-42080000D02*
X133171000Y-46501000D01*
X133211000Y-34795000D02*
X133211000Y-39200000D01*
X133211000Y-42080000D02*
X133211000Y-46485000D01*
X133251000Y-34812000D02*
X133251000Y-39200000D01*
X133251000Y-42080000D02*
X133251000Y-46468000D01*
X133291000Y-34829000D02*
X133291000Y-39200000D01*
X133291000Y-42080000D02*
X133291000Y-46451000D01*
X133331000Y-34847000D02*
X133331000Y-39200000D01*
X133331000Y-42080000D02*
X133331000Y-46433000D01*
X133371000Y-34864000D02*
X133371000Y-39200000D01*
X133371000Y-42080000D02*
X133371000Y-46416000D01*
X133411000Y-34882000D02*
X133411000Y-39200000D01*
X133411000Y-42080000D02*
X133411000Y-46398000D01*
X133451000Y-34901000D02*
X133451000Y-39200000D01*
X133451000Y-42080000D02*
X133451000Y-46379000D01*
X133491000Y-34919000D02*
X133491000Y-39200000D01*
X133491000Y-42080000D02*
X133491000Y-46361000D01*
X133531000Y-34938000D02*
X133531000Y-39200000D01*
X133531000Y-42080000D02*
X133531000Y-46342000D01*
X133571000Y-34958000D02*
X133571000Y-39200000D01*
X133571000Y-42080000D02*
X133571000Y-46322000D01*
X133611000Y-34978000D02*
X133611000Y-39200000D01*
X133611000Y-42080000D02*
X133611000Y-46302000D01*
X133651000Y-34998000D02*
X133651000Y-39200000D01*
X133651000Y-42080000D02*
X133651000Y-46282000D01*
X133691000Y-35018000D02*
X133691000Y-39200000D01*
X133691000Y-42080000D02*
X133691000Y-46262000D01*
X133731000Y-35039000D02*
X133731000Y-39200000D01*
X133731000Y-42080000D02*
X133731000Y-46241000D01*
X133771000Y-35060000D02*
X133771000Y-39200000D01*
X133771000Y-42080000D02*
X133771000Y-46220000D01*
X133811000Y-35082000D02*
X133811000Y-39200000D01*
X133811000Y-42080000D02*
X133811000Y-46198000D01*
X133851000Y-35104000D02*
X133851000Y-39200000D01*
X133851000Y-42080000D02*
X133851000Y-46176000D01*
X133891000Y-35126000D02*
X133891000Y-39200000D01*
X133891000Y-42080000D02*
X133891000Y-46154000D01*
X133931000Y-35149000D02*
X133931000Y-39200000D01*
X133931000Y-42080000D02*
X133931000Y-46131000D01*
X133971000Y-35172000D02*
X133971000Y-39200000D01*
X133971000Y-42080000D02*
X133971000Y-46108000D01*
X134011000Y-35195000D02*
X134011000Y-39200000D01*
X134011000Y-42080000D02*
X134011000Y-46085000D01*
X134051000Y-35219000D02*
X134051000Y-39200000D01*
X134051000Y-42080000D02*
X134051000Y-46061000D01*
X134091000Y-35243000D02*
X134091000Y-39200000D01*
X134091000Y-42080000D02*
X134091000Y-46037000D01*
X134131000Y-35268000D02*
X134131000Y-39200000D01*
X134131000Y-42080000D02*
X134131000Y-46012000D01*
X134171000Y-35293000D02*
X134171000Y-39200000D01*
X134171000Y-42080000D02*
X134171000Y-45987000D01*
X134211000Y-35318000D02*
X134211000Y-39200000D01*
X134211000Y-42080000D02*
X134211000Y-45962000D01*
X134251000Y-35344000D02*
X134251000Y-39200000D01*
X134251000Y-42080000D02*
X134251000Y-45936000D01*
X134291000Y-35370000D02*
X134291000Y-39200000D01*
X134291000Y-42080000D02*
X134291000Y-45910000D01*
X134331000Y-35397000D02*
X134331000Y-39200000D01*
X134331000Y-42080000D02*
X134331000Y-45883000D01*
X134371000Y-35424000D02*
X134371000Y-39200000D01*
X134371000Y-42080000D02*
X134371000Y-45856000D01*
X134411000Y-35452000D02*
X134411000Y-39200000D01*
X134411000Y-42080000D02*
X134411000Y-45828000D01*
X134451000Y-35480000D02*
X134451000Y-39200000D01*
X134451000Y-42080000D02*
X134451000Y-45800000D01*
X134491000Y-35509000D02*
X134491000Y-39200000D01*
X134491000Y-42080000D02*
X134491000Y-45771000D01*
X134531000Y-35538000D02*
X134531000Y-39200000D01*
X134531000Y-42080000D02*
X134531000Y-45742000D01*
X134571000Y-35567000D02*
X134571000Y-39200000D01*
X134571000Y-42080000D02*
X134571000Y-45713000D01*
X134611000Y-35597000D02*
X134611000Y-39200000D01*
X134611000Y-42080000D02*
X134611000Y-45683000D01*
X134651000Y-35628000D02*
X134651000Y-39200000D01*
X134651000Y-42080000D02*
X134651000Y-45652000D01*
X134691000Y-35658000D02*
X134691000Y-39200000D01*
X134691000Y-42080000D02*
X134691000Y-45622000D01*
X134731000Y-35690000D02*
X134731000Y-45590000D01*
X134771000Y-35722000D02*
X134771000Y-45558000D01*
X134811000Y-35755000D02*
X134811000Y-45525000D01*
X134851000Y-35788000D02*
X134851000Y-45492000D01*
X134891000Y-35821000D02*
X134891000Y-45459000D01*
X134931000Y-35855000D02*
X134931000Y-45425000D01*
X134971000Y-35890000D02*
X134971000Y-45390000D01*
X135011000Y-35926000D02*
X135011000Y-45354000D01*
X135051000Y-35962000D02*
X135051000Y-45318000D01*
X135091000Y-35998000D02*
X135091000Y-45282000D01*
X135131000Y-36035000D02*
X135131000Y-45245000D01*
X135171000Y-36073000D02*
X135171000Y-45207000D01*
X135211000Y-36112000D02*
X135211000Y-45168000D01*
X135251000Y-36151000D02*
X135251000Y-45129000D01*
X135291000Y-36191000D02*
X135291000Y-45089000D01*
X135331000Y-36232000D02*
X135331000Y-45048000D01*
X135371000Y-36273000D02*
X135371000Y-45007000D01*
X135411000Y-36315000D02*
X135411000Y-44965000D01*
X135451000Y-36358000D02*
X135451000Y-44922000D01*
X135491000Y-36402000D02*
X135491000Y-44878000D01*
X135531000Y-36446000D02*
X135531000Y-44834000D01*
X135571000Y-36492000D02*
X135571000Y-44788000D01*
X135611000Y-36538000D02*
X135611000Y-44742000D01*
X135651000Y-36585000D02*
X135651000Y-44695000D01*
X135691000Y-36633000D02*
X135691000Y-44647000D01*
X135731000Y-36683000D02*
X135731000Y-44597000D01*
X135771000Y-36733000D02*
X135771000Y-44547000D01*
X135811000Y-36784000D02*
X135811000Y-44496000D01*
X135851000Y-36836000D02*
X135851000Y-44444000D01*
X135891000Y-36890000D02*
X135891000Y-44390000D01*
X135931000Y-36944000D02*
X135931000Y-44336000D01*
X135971000Y-37000000D02*
X135971000Y-44280000D01*
X136011000Y-37057000D02*
X136011000Y-44223000D01*
X136051000Y-37116000D02*
X136051000Y-44164000D01*
X136091000Y-37176000D02*
X136091000Y-44104000D01*
X136131000Y-37238000D02*
X136131000Y-44042000D01*
X136171000Y-37301000D02*
X136171000Y-43979000D01*
X136211000Y-37365000D02*
X136211000Y-43915000D01*
X136251000Y-37432000D02*
X136251000Y-43848000D01*
X136291000Y-37500000D02*
X136291000Y-43780000D01*
X136331000Y-37571000D02*
X136331000Y-43709000D01*
X136371000Y-37644000D02*
X136371000Y-43636000D01*
X136411000Y-37719000D02*
X136411000Y-43561000D01*
X136451000Y-37796000D02*
X136451000Y-43484000D01*
X136491000Y-37876000D02*
X136491000Y-43404000D01*
X136531000Y-37959000D02*
X136531000Y-43321000D01*
X136571000Y-38046000D02*
X136571000Y-43234000D01*
X136611000Y-38136000D02*
X136611000Y-43144000D01*
X136651000Y-38230000D02*
X136651000Y-43050000D01*
X136691000Y-38328000D02*
X136691000Y-42952000D01*
X136731000Y-38431000D02*
X136731000Y-42849000D01*
X136771000Y-38540000D02*
X136771000Y-42740000D01*
X136811000Y-38656000D02*
X136811000Y-42624000D01*
X136851000Y-38779000D02*
X136851000Y-42501000D01*
X136891000Y-38912000D02*
X136891000Y-42368000D01*
X136931000Y-39057000D02*
X136931000Y-42223000D01*
X136971000Y-39218000D02*
X136971000Y-42062000D01*
X137011000Y-39399000D02*
X137011000Y-41881000D01*
X137051000Y-39612000D02*
X137051000Y-41668000D01*
X137091000Y-39883000D02*
X137091000Y-41397000D01*
X137131000Y-40323000D02*
X137131000Y-40957000D01*
X123952918Y-37065000D02*
X125202918Y-37065000D01*
X124577918Y-36440000D02*
X124577918Y-37690000D01*
G04 #@! TO.C,C11*
X50670000Y-27590000D02*
X50670000Y-30830000D01*
X43230000Y-27590000D02*
X43230000Y-30830000D01*
X43230000Y-30830000D02*
X50670000Y-30830000D01*
X43230000Y-27590000D02*
X50670000Y-27590000D01*
G04 #@! TO.C,D1*
X84840000Y-47140000D02*
X84840000Y-49380000D01*
X85080000Y-47140000D02*
X85080000Y-49380000D01*
X84960000Y-47140000D02*
X84960000Y-49380000D01*
X90400000Y-48260000D02*
X88480000Y-48260000D01*
X82320000Y-48260000D02*
X84240000Y-48260000D01*
X88480000Y-47140000D02*
X84240000Y-47140000D01*
X88480000Y-49380000D02*
X88480000Y-47140000D01*
X84240000Y-49380000D02*
X88480000Y-49380000D01*
X84240000Y-47140000D02*
X84240000Y-49380000D01*
G04 #@! TO.C,D2*
X84940000Y-55030000D02*
X82700000Y-55030000D01*
X82700000Y-55030000D02*
X82700000Y-59270000D01*
X82700000Y-59270000D02*
X84940000Y-59270000D01*
X84940000Y-59270000D02*
X84940000Y-55030000D01*
X83820000Y-53110000D02*
X83820000Y-55030000D01*
X83820000Y-61190000D02*
X83820000Y-59270000D01*
X84940000Y-55750000D02*
X82700000Y-55750000D01*
X84940000Y-55870000D02*
X82700000Y-55870000D01*
X84940000Y-55630000D02*
X82700000Y-55630000D01*
G04 #@! TO.C,Dz1*
X40490000Y-81700000D02*
X38250000Y-81700000D01*
X38250000Y-81700000D02*
X38250000Y-85940000D01*
X38250000Y-85940000D02*
X40490000Y-85940000D01*
X40490000Y-85940000D02*
X40490000Y-81700000D01*
X39370000Y-79780000D02*
X39370000Y-81700000D01*
X39370000Y-87860000D02*
X39370000Y-85940000D01*
X40490000Y-82420000D02*
X38250000Y-82420000D01*
X40490000Y-82540000D02*
X38250000Y-82540000D01*
X40490000Y-82300000D02*
X38250000Y-82300000D01*
G04 #@! TO.C,HS1*
X137000000Y-59150000D02*
X135040000Y-57260000D01*
X136910000Y-59300000D02*
X137000000Y-59150000D01*
X134860000Y-58620000D02*
X136910000Y-59300000D01*
X137010000Y-62390000D02*
X134860000Y-58620000D01*
X136890000Y-62510000D02*
X137010000Y-62390000D01*
X131590000Y-59630000D02*
X136890000Y-62510000D01*
X132250000Y-62430000D02*
X131590000Y-59630000D01*
X132070000Y-62490000D02*
X132250000Y-62430000D01*
X129570000Y-58770000D02*
X132070000Y-62490000D01*
X127950000Y-62480000D02*
X129560000Y-58770000D01*
X127280000Y-62480000D02*
X127950000Y-62480000D01*
X127280000Y-56730000D02*
X127280000Y-62480000D01*
X119380000Y-56730000D02*
X127280000Y-56730000D01*
X127280000Y-49280000D02*
X127950000Y-49280000D01*
X127280000Y-55030000D02*
X127280000Y-49280000D01*
X119380000Y-55030000D02*
X127280000Y-55030000D01*
X127950000Y-49280000D02*
X129560000Y-52990000D01*
X136910000Y-52460000D02*
X137000000Y-52610000D01*
X136890000Y-49250000D02*
X137010000Y-49370000D01*
X137010000Y-49370000D02*
X134860000Y-53140000D01*
X134860000Y-53140000D02*
X136910000Y-52460000D01*
X137000000Y-52610000D02*
X135040000Y-54500000D01*
X131590000Y-52130000D02*
X136890000Y-49250000D01*
X129570000Y-52990000D02*
X132070000Y-49270000D01*
X132070000Y-49270000D02*
X132250000Y-49330000D01*
X132250000Y-49330000D02*
X131590000Y-52130000D01*
X119380000Y-56730000D02*
X111480000Y-56730000D01*
X110810000Y-62480000D02*
X109200000Y-58770000D01*
X111480000Y-62480000D02*
X110810000Y-62480000D01*
X111480000Y-56730000D02*
X111480000Y-62480000D01*
X119380000Y-55030000D02*
X111480000Y-55030000D01*
X103900000Y-53140000D02*
X101850000Y-52460000D01*
X101870000Y-49250000D02*
X101750000Y-49370000D01*
X101850000Y-52460000D02*
X101760000Y-52610000D01*
X101750000Y-49370000D02*
X103900000Y-53140000D01*
X101760000Y-52610000D02*
X103720000Y-54500000D01*
X109190000Y-52990000D02*
X106690000Y-49270000D01*
X106510000Y-49330000D02*
X107170000Y-52130000D01*
X106690000Y-49270000D02*
X106510000Y-49330000D01*
X107170000Y-52130000D02*
X101870000Y-49250000D01*
X111480000Y-49280000D02*
X110810000Y-49280000D01*
X111480000Y-55030000D02*
X111480000Y-49280000D01*
X110810000Y-49280000D02*
X109200000Y-52990000D01*
X101870000Y-62510000D02*
X101750000Y-62390000D01*
X101760000Y-59150000D02*
X103720000Y-57260000D01*
X103900000Y-58620000D02*
X101850000Y-59300000D01*
X101850000Y-59300000D02*
X101760000Y-59150000D01*
X101750000Y-62390000D02*
X103900000Y-58620000D01*
X107170000Y-59630000D02*
X101870000Y-62510000D01*
X106510000Y-62430000D02*
X107170000Y-59630000D01*
X106690000Y-62490000D02*
X106510000Y-62430000D01*
X109190000Y-58770000D02*
X106690000Y-62490000D01*
G04 #@! TO.C,HS2*
X44420000Y-58770000D02*
X41920000Y-62490000D01*
X41920000Y-62490000D02*
X41740000Y-62430000D01*
X41740000Y-62430000D02*
X42400000Y-59630000D01*
X42400000Y-59630000D02*
X37100000Y-62510000D01*
X36980000Y-62390000D02*
X39130000Y-58620000D01*
X37080000Y-59300000D02*
X36990000Y-59150000D01*
X39130000Y-58620000D02*
X37080000Y-59300000D01*
X36990000Y-59150000D02*
X38950000Y-57260000D01*
X37100000Y-62510000D02*
X36980000Y-62390000D01*
X46040000Y-49280000D02*
X44430000Y-52990000D01*
X46710000Y-55030000D02*
X46710000Y-49280000D01*
X46710000Y-49280000D02*
X46040000Y-49280000D01*
X42400000Y-52130000D02*
X37100000Y-49250000D01*
X41920000Y-49270000D02*
X41740000Y-49330000D01*
X41740000Y-49330000D02*
X42400000Y-52130000D01*
X44420000Y-52990000D02*
X41920000Y-49270000D01*
X36990000Y-52610000D02*
X38950000Y-54500000D01*
X36980000Y-49370000D02*
X39130000Y-53140000D01*
X37080000Y-52460000D02*
X36990000Y-52610000D01*
X37100000Y-49250000D02*
X36980000Y-49370000D01*
X39130000Y-53140000D02*
X37080000Y-52460000D01*
X54610000Y-55030000D02*
X46710000Y-55030000D01*
X46710000Y-56730000D02*
X46710000Y-62480000D01*
X46710000Y-62480000D02*
X46040000Y-62480000D01*
X46040000Y-62480000D02*
X44430000Y-58770000D01*
X54610000Y-56730000D02*
X46710000Y-56730000D01*
X67480000Y-49330000D02*
X66820000Y-52130000D01*
X67300000Y-49270000D02*
X67480000Y-49330000D01*
X64800000Y-52990000D02*
X67300000Y-49270000D01*
X66820000Y-52130000D02*
X72120000Y-49250000D01*
X72230000Y-52610000D02*
X70270000Y-54500000D01*
X70090000Y-53140000D02*
X72140000Y-52460000D01*
X72240000Y-49370000D02*
X70090000Y-53140000D01*
X72120000Y-49250000D02*
X72240000Y-49370000D01*
X72140000Y-52460000D02*
X72230000Y-52610000D01*
X63180000Y-49280000D02*
X64790000Y-52990000D01*
X54610000Y-55030000D02*
X62510000Y-55030000D01*
X62510000Y-55030000D02*
X62510000Y-49280000D01*
X62510000Y-49280000D02*
X63180000Y-49280000D01*
X54610000Y-56730000D02*
X62510000Y-56730000D01*
X62510000Y-56730000D02*
X62510000Y-62480000D01*
X62510000Y-62480000D02*
X63180000Y-62480000D01*
X63180000Y-62480000D02*
X64790000Y-58770000D01*
X64800000Y-58770000D02*
X67300000Y-62490000D01*
X67300000Y-62490000D02*
X67480000Y-62430000D01*
X67480000Y-62430000D02*
X66820000Y-59630000D01*
X66820000Y-59630000D02*
X72120000Y-62510000D01*
X72120000Y-62510000D02*
X72240000Y-62390000D01*
X72240000Y-62390000D02*
X70090000Y-58620000D01*
X70090000Y-58620000D02*
X72140000Y-59300000D01*
X72140000Y-59300000D02*
X72230000Y-59150000D01*
X72230000Y-59150000D02*
X70270000Y-57260000D01*
G04 #@! TO.C,J2*
X62946841Y-33965821D02*
G75*
G02X58960000Y-33950000I-1986841J1665821D01*
G01*
X68026841Y-33965821D02*
G75*
G02X64040000Y-33950000I-1986841J1665821D01*
G01*
X57310000Y-26840000D02*
X57310000Y-35660000D01*
X57310000Y-35660000D02*
X69690000Y-35660000D01*
X69690000Y-35660000D02*
X69690000Y-26840000D01*
X69690000Y-26840000D02*
X57310000Y-26840000D01*
X57310000Y-27650000D02*
X59850000Y-27650000D01*
X69690000Y-27650000D02*
X67150000Y-27650000D01*
X61960000Y-27650000D02*
X65040000Y-27650000D01*
X59960000Y-28650000D02*
X59960000Y-26840000D01*
X59960000Y-26840000D02*
X61960000Y-26840000D01*
X61960000Y-26840000D02*
X61960000Y-28650000D01*
X61960000Y-28650000D02*
X59960000Y-28650000D01*
X65040000Y-28650000D02*
X65040000Y-26840000D01*
X65040000Y-26840000D02*
X67040000Y-26840000D01*
X67040000Y-26840000D02*
X67040000Y-28650000D01*
X67040000Y-28650000D02*
X65040000Y-28650000D01*
X62960000Y-33950000D02*
X64040000Y-33950000D01*
X58960000Y-33950000D02*
X58220000Y-33950000D01*
X58220000Y-33950000D02*
X58220000Y-28650000D01*
X58220000Y-28650000D02*
X68780000Y-28650000D01*
X68780000Y-28650000D02*
X68780000Y-33950000D01*
X68780000Y-33950000D02*
X68040000Y-33950000D01*
X61260000Y-26040000D02*
X60960000Y-26640000D01*
X60960000Y-26640000D02*
X60660000Y-26040000D01*
X60660000Y-26040000D02*
X61260000Y-26040000D01*
G04 #@! TO.C,J3*
X103586841Y-33965821D02*
G75*
G02X99600000Y-33950000I-1986841J1665821D01*
G01*
X108666841Y-33965821D02*
G75*
G02X104680000Y-33950000I-1986841J1665821D01*
G01*
X113746841Y-33965821D02*
G75*
G02X109760000Y-33950000I-1986841J1665821D01*
G01*
X97950000Y-26840000D02*
X97950000Y-35660000D01*
X97950000Y-35660000D02*
X115410000Y-35660000D01*
X115410000Y-35660000D02*
X115410000Y-26840000D01*
X115410000Y-26840000D02*
X97950000Y-26840000D01*
X97950000Y-27650000D02*
X100490000Y-27650000D01*
X115410000Y-27650000D02*
X112870000Y-27650000D01*
X102600000Y-27650000D02*
X105680000Y-27650000D01*
X107680000Y-27650000D02*
X110760000Y-27650000D01*
X100600000Y-28650000D02*
X100600000Y-26840000D01*
X100600000Y-26840000D02*
X102600000Y-26840000D01*
X102600000Y-26840000D02*
X102600000Y-28650000D01*
X102600000Y-28650000D02*
X100600000Y-28650000D01*
X105680000Y-28650000D02*
X105680000Y-26840000D01*
X105680000Y-26840000D02*
X107680000Y-26840000D01*
X107680000Y-26840000D02*
X107680000Y-28650000D01*
X107680000Y-28650000D02*
X105680000Y-28650000D01*
X110760000Y-28650000D02*
X110760000Y-26840000D01*
X110760000Y-26840000D02*
X112760000Y-26840000D01*
X112760000Y-26840000D02*
X112760000Y-28650000D01*
X112760000Y-28650000D02*
X110760000Y-28650000D01*
X103600000Y-33950000D02*
X104680000Y-33950000D01*
X108680000Y-33950000D02*
X109760000Y-33950000D01*
X99600000Y-33950000D02*
X98860000Y-33950000D01*
X98860000Y-33950000D02*
X98860000Y-28650000D01*
X98860000Y-28650000D02*
X114500000Y-28650000D01*
X114500000Y-28650000D02*
X114500000Y-33950000D01*
X114500000Y-33950000D02*
X113760000Y-33950000D01*
X101900000Y-26040000D02*
X101600000Y-26640000D01*
X101600000Y-26640000D02*
X101300000Y-26040000D01*
X101300000Y-26040000D02*
X101900000Y-26040000D01*
G04 #@! TO.C,Q1*
X60190271Y-96191974D02*
X58900272Y-96191975D01*
X58900272Y-96191975D02*
X58900272Y-97591974D01*
X58900272Y-97591974D02*
X60190271Y-97591975D01*
X60190213Y-97591732D02*
G75*
G03X60190271Y-96191974I2937813J699758D01*
G01*
G04 #@! TO.C,Q2*
X49562150Y-99372544D02*
G75*
G03X48572331Y-100362281I-2572150J1582544D01*
G01*
X50474448Y-100284499D02*
X49562281Y-99372331D01*
X49484499Y-101274448D02*
X50474448Y-100284499D01*
X48572331Y-100362281D02*
X49484499Y-101274448D01*
G04 #@! TO.C,Q3*
X56192544Y-85057850D02*
G75*
G03X57182281Y-86047669I-1582544J-2572150D01*
G01*
X57104499Y-84145552D02*
X56192331Y-85057719D01*
X58094448Y-85135501D02*
X57104499Y-84145552D01*
X57182281Y-86047669D02*
X58094448Y-85135501D01*
G04 #@! TO.C,Q4*
X101401732Y-104909787D02*
G75*
G03X100001974Y-104909729I-699758J2937813D01*
G01*
X101401974Y-106199728D02*
X101401975Y-104909729D01*
X100001975Y-106199728D02*
X101401974Y-106199728D01*
X100001974Y-104909729D02*
X100001975Y-106199728D01*
G04 #@! TO.C,Q5*
X109418025Y-111785780D02*
X109418026Y-113075779D01*
X109418026Y-113075779D02*
X110818025Y-113075779D01*
X110818025Y-113075779D02*
X110818026Y-111785780D01*
X110817783Y-111785838D02*
G75*
G03X109418025Y-111785780I-699758J2937813D01*
G01*
G04 #@! TO.C,Q6*
X112072544Y-90137850D02*
G75*
G03X113062281Y-91127669I-1582544J-2572150D01*
G01*
X112984499Y-89225552D02*
X112072331Y-90137719D01*
X113974448Y-90215501D02*
X112984499Y-89225552D01*
X113062281Y-91127669D02*
X113974448Y-90215501D01*
G04 #@! TO.C,Q7*
X97822281Y-91127669D02*
X98734448Y-90215501D01*
X98734448Y-90215501D02*
X97744499Y-89225552D01*
X97744499Y-89225552D02*
X96832331Y-90137719D01*
X96832544Y-90137850D02*
G75*
G03X97822281Y-91127669I-1582544J-2572150D01*
G01*
G04 #@! TO.C,Q8*
X77160000Y-66460000D02*
X85400000Y-66460000D01*
X77160000Y-69950000D02*
X85400000Y-69950000D01*
X77160000Y-66460000D02*
X77160000Y-69950000D01*
X85400000Y-66460000D02*
X85400000Y-69950000D01*
X79680000Y-66460000D02*
X79680000Y-67530000D01*
X79680000Y-69630000D02*
X79680000Y-69950000D01*
X82881000Y-66460000D02*
X82881000Y-68040000D01*
X82881000Y-69120000D02*
X82881000Y-69950000D01*
G04 #@! TO.C,Q9*
X119711000Y-69120000D02*
X119711000Y-69950000D01*
X119711000Y-66460000D02*
X119711000Y-68040000D01*
X116510000Y-69630000D02*
X116510000Y-69950000D01*
X116510000Y-66460000D02*
X116510000Y-67530000D01*
X122230000Y-66460000D02*
X122230000Y-69950000D01*
X113990000Y-66460000D02*
X113990000Y-69950000D01*
X113990000Y-69950000D02*
X122230000Y-69950000D01*
X113990000Y-66460000D02*
X122230000Y-66460000D01*
G04 #@! TO.C,Q10*
X56461000Y-56420000D02*
X56461000Y-57930000D01*
X52760000Y-56420000D02*
X52760000Y-57930000D01*
X49490000Y-57930000D02*
X59730000Y-57930000D01*
X59730000Y-56420000D02*
X59730000Y-61061000D01*
X49490000Y-56420000D02*
X49490000Y-61061000D01*
X49490000Y-61061000D02*
X59730000Y-61061000D01*
X49490000Y-56420000D02*
X59730000Y-56420000D01*
G04 #@! TO.C,Q11*
X55570000Y-65190000D02*
X63810000Y-65190000D01*
X55570000Y-68680000D02*
X63810000Y-68680000D01*
X55570000Y-65190000D02*
X55570000Y-68680000D01*
X63810000Y-65190000D02*
X63810000Y-68680000D01*
X58090000Y-65190000D02*
X58090000Y-66260000D01*
X58090000Y-68360000D02*
X58090000Y-68680000D01*
X61291000Y-65190000D02*
X61291000Y-66770000D01*
X61291000Y-67850000D02*
X61291000Y-68680000D01*
G04 #@! TO.C,Q12*
X114260000Y-56420000D02*
X124500000Y-56420000D01*
X114260000Y-61061000D02*
X124500000Y-61061000D01*
X114260000Y-56420000D02*
X114260000Y-61061000D01*
X124500000Y-56420000D02*
X124500000Y-61061000D01*
X114260000Y-57930000D02*
X124500000Y-57930000D01*
X117530000Y-56420000D02*
X117530000Y-57930000D01*
X121231000Y-56420000D02*
X121231000Y-57930000D01*
G04 #@! TO.C,Q13*
X91127669Y-53307719D02*
X90215501Y-52395552D01*
X90215501Y-52395552D02*
X89225552Y-53385501D01*
X89225552Y-53385501D02*
X90137719Y-54297669D01*
X90137850Y-54297456D02*
G75*
G03X91127669Y-53307719I2572150J-1582544D01*
G01*
G04 #@! TO.C,R1*
X58520000Y-111030000D02*
X55780000Y-111030000D01*
X55780000Y-111030000D02*
X55780000Y-117570000D01*
X55780000Y-117570000D02*
X58520000Y-117570000D01*
X58520000Y-117570000D02*
X58520000Y-111030000D01*
X57150000Y-110260000D02*
X57150000Y-111030000D01*
X57150000Y-118340000D02*
X57150000Y-117570000D01*
G04 #@! TO.C,R2*
X89000000Y-108490000D02*
X86260000Y-108490000D01*
X86260000Y-108490000D02*
X86260000Y-115030000D01*
X86260000Y-115030000D02*
X89000000Y-115030000D01*
X89000000Y-115030000D02*
X89000000Y-108490000D01*
X87630000Y-107720000D02*
X87630000Y-108490000D01*
X87630000Y-115800000D02*
X87630000Y-115030000D01*
G04 #@! TO.C,R3*
X45720000Y-114530000D02*
X45720000Y-113760000D01*
X45720000Y-106450000D02*
X45720000Y-107220000D01*
X47090000Y-113760000D02*
X47090000Y-107220000D01*
X44350000Y-113760000D02*
X47090000Y-113760000D01*
X44350000Y-107220000D02*
X44350000Y-113760000D01*
X47090000Y-107220000D02*
X44350000Y-107220000D01*
G04 #@! TO.C,R4*
X65940000Y-90900000D02*
X68680000Y-90900000D01*
X68680000Y-90900000D02*
X68680000Y-84360000D01*
X68680000Y-84360000D02*
X65940000Y-84360000D01*
X65940000Y-84360000D02*
X65940000Y-90900000D01*
X67310000Y-91670000D02*
X67310000Y-90900000D01*
X67310000Y-83590000D02*
X67310000Y-84360000D01*
G04 #@! TO.C,R5*
X44450000Y-79780000D02*
X44450000Y-80550000D01*
X44450000Y-87860000D02*
X44450000Y-87090000D01*
X43080000Y-80550000D02*
X43080000Y-87090000D01*
X45820000Y-80550000D02*
X43080000Y-80550000D01*
X45820000Y-87090000D02*
X45820000Y-80550000D01*
X43080000Y-87090000D02*
X45820000Y-87090000D01*
G04 #@! TO.C,R6*
X103100000Y-116840000D02*
X102330000Y-116840000D01*
X95020000Y-116840000D02*
X95790000Y-116840000D01*
X102330000Y-115470000D02*
X95790000Y-115470000D01*
X102330000Y-118210000D02*
X102330000Y-115470000D01*
X95790000Y-118210000D02*
X102330000Y-118210000D01*
X95790000Y-115470000D02*
X95790000Y-118210000D01*
G04 #@! TO.C,R7*
X81050000Y-83820000D02*
X81820000Y-83820000D01*
X89130000Y-83820000D02*
X88360000Y-83820000D01*
X81820000Y-85190000D02*
X88360000Y-85190000D01*
X81820000Y-82450000D02*
X81820000Y-85190000D01*
X88360000Y-82450000D02*
X81820000Y-82450000D01*
X88360000Y-85190000D02*
X88360000Y-82450000D01*
G04 #@! TO.C,R8*
X102140000Y-78640000D02*
X102140000Y-81380000D01*
X102140000Y-81380000D02*
X108680000Y-81380000D01*
X108680000Y-81380000D02*
X108680000Y-78640000D01*
X108680000Y-78640000D02*
X102140000Y-78640000D01*
X101370000Y-80010000D02*
X102140000Y-80010000D01*
X109450000Y-80010000D02*
X108680000Y-80010000D01*
G04 #@! TO.C,R9*
X72290000Y-90900000D02*
X75030000Y-90900000D01*
X75030000Y-90900000D02*
X75030000Y-84360000D01*
X75030000Y-84360000D02*
X72290000Y-84360000D01*
X72290000Y-84360000D02*
X72290000Y-90900000D01*
X73660000Y-91670000D02*
X73660000Y-90900000D01*
X73660000Y-83590000D02*
X73660000Y-84360000D01*
G04 #@! TO.C,R10*
X81820000Y-77370000D02*
X81820000Y-80110000D01*
X81820000Y-80110000D02*
X88360000Y-80110000D01*
X88360000Y-80110000D02*
X88360000Y-77370000D01*
X88360000Y-77370000D02*
X81820000Y-77370000D01*
X81050000Y-78740000D02*
X81820000Y-78740000D01*
X89130000Y-78740000D02*
X88360000Y-78740000D01*
G04 #@! TO.C,R11*
X72220000Y-43180000D02*
X71370000Y-43180000D01*
X54780000Y-43180000D02*
X55630000Y-43180000D01*
X71370000Y-40560000D02*
X55630000Y-40560000D01*
X71370000Y-45800000D02*
X71370000Y-40560000D01*
X55630000Y-45800000D02*
X71370000Y-45800000D01*
X55630000Y-40560000D02*
X55630000Y-45800000D01*
G04 #@! TO.C,R12*
X101350000Y-40560000D02*
X101350000Y-45800000D01*
X101350000Y-45800000D02*
X117090000Y-45800000D01*
X117090000Y-45800000D02*
X117090000Y-40560000D01*
X117090000Y-40560000D02*
X101350000Y-40560000D01*
X100500000Y-43180000D02*
X101350000Y-43180000D01*
X117940000Y-43180000D02*
X117090000Y-43180000D01*
G04 #@! TO.C,R13*
X74930000Y-28980000D02*
X74930000Y-29750000D01*
X74930000Y-37060000D02*
X74930000Y-36290000D01*
X73560000Y-29750000D02*
X73560000Y-36290000D01*
X76300000Y-29750000D02*
X73560000Y-29750000D01*
X76300000Y-36290000D02*
X76300000Y-29750000D01*
X73560000Y-36290000D02*
X76300000Y-36290000D01*
G04 #@! TO.C,R14*
X160250000Y-99060000D02*
X159480000Y-99060000D01*
X152170000Y-99060000D02*
X152940000Y-99060000D01*
X159480000Y-97690000D02*
X152940000Y-97690000D01*
X159480000Y-100430000D02*
X159480000Y-97690000D01*
X152940000Y-100430000D02*
X159480000Y-100430000D01*
X152940000Y-97690000D02*
X152940000Y-100430000D01*
G04 #@! TO.C,R15*
X153885001Y-106825001D02*
X153885001Y-109565001D01*
X153885001Y-109565001D02*
X160425001Y-109565001D01*
X160425001Y-109565001D02*
X160425001Y-106825001D01*
X160425001Y-106825001D02*
X153885001Y-106825001D01*
X153115001Y-108195001D02*
X153885001Y-108195001D01*
X161195001Y-108195001D02*
X160425001Y-108195001D01*
G04 #@! TO.C,R16*
X78740000Y-53110000D02*
X78740000Y-53880000D01*
X78740000Y-61190000D02*
X78740000Y-60420000D01*
X77370000Y-53880000D02*
X77370000Y-60420000D01*
X80110000Y-53880000D02*
X77370000Y-53880000D01*
X80110000Y-60420000D02*
X80110000Y-53880000D01*
X77370000Y-60420000D02*
X80110000Y-60420000D01*
G04 #@! TO.C,R17*
X97690000Y-57880000D02*
X100430000Y-57880000D01*
X100430000Y-57880000D02*
X100430000Y-51340000D01*
X100430000Y-51340000D02*
X97690000Y-51340000D01*
X97690000Y-51340000D02*
X97690000Y-57880000D01*
X99060000Y-58650000D02*
X99060000Y-57880000D01*
X99060000Y-50570000D02*
X99060000Y-51340000D01*
G04 #@! TO.C,RV1*
X110295000Y-69860000D02*
X110295000Y-74930000D01*
X100525000Y-69860000D02*
X100525000Y-74930000D01*
X100525000Y-74930000D02*
X110295000Y-74930000D01*
X100525000Y-69860000D02*
X110295000Y-69860000D01*
G04 #@! TO.C,RV2*
X67505000Y-71130000D02*
X77275000Y-71130000D01*
X67505000Y-76200000D02*
X77275000Y-76200000D01*
X67505000Y-71130000D02*
X67505000Y-76200000D01*
X77275000Y-71130000D02*
X77275000Y-76200000D01*
D11*
G04 #@! TO.C,U1*
X80800000Y-44900000D02*
X80800000Y-26830000D01*
X80860000Y-26755000D02*
X90660000Y-26755000D01*
X90700000Y-26830000D02*
X90700000Y-44900000D01*
X90660000Y-44955000D02*
X80860000Y-44955000D01*
X80800000Y-27055000D02*
X80800000Y-26855000D01*
X82700000Y-41755000D02*
G75*
G02X84500000Y-41755000I900000J0D01*
G01*
X84600000Y-41855000D02*
G75*
G02X86400000Y-41855000I900000J0D01*
G01*
X86400000Y-41855000D02*
G75*
G02X88200000Y-41855000I900000J0D01*
G01*
X88300000Y-30755000D02*
X86900000Y-30755000D01*
X86900000Y-30755000D02*
X85100000Y-30755000D01*
X85100000Y-30755000D02*
X83900000Y-31955000D01*
X82000000Y-28255000D02*
X82000000Y-30655000D01*
X82000000Y-30655000D02*
X83000000Y-30655000D01*
X83300000Y-30955000D02*
X83000000Y-30655000D01*
G04 #@! TO.C,U2*
X69740000Y-123290000D02*
X69040000Y-123290000D01*
X69740000Y-109690000D02*
X69740000Y-123290000D01*
X62240000Y-109690000D02*
X69740000Y-109690000D01*
X62240000Y-123290000D02*
X62240000Y-109690000D01*
X66040000Y-123290000D02*
X62240000Y-123290000D01*
X69040000Y-123290000D02*
X69040000Y-123690000D01*
X68940000Y-123290000D02*
X69040000Y-123290000D01*
X63040000Y-123290000D02*
X68940000Y-123290000D01*
X63040000Y-123690000D02*
X63040000Y-123290000D01*
X69040000Y-127690000D02*
X69040000Y-123690000D01*
X63040000Y-127690000D02*
X69040000Y-127690000D01*
X63040000Y-123690000D02*
X63040000Y-127690000D01*
X63040000Y-123690000D02*
X69040000Y-123690000D01*
G04 #@! TO.C,C1*
X81807142Y-114426666D02*
X81854761Y-114474285D01*
X81902380Y-114617142D01*
X81902380Y-114712380D01*
X81854761Y-114855238D01*
X81759523Y-114950476D01*
X81664285Y-114998095D01*
X81473809Y-115045714D01*
X81330952Y-115045714D01*
X81140476Y-114998095D01*
X81045238Y-114950476D01*
X80950000Y-114855238D01*
X80902380Y-114712380D01*
X80902380Y-114617142D01*
X80950000Y-114474285D01*
X80997619Y-114426666D01*
X81902380Y-113474285D02*
X81902380Y-114045714D01*
X81902380Y-113760000D02*
X80902380Y-113760000D01*
X81045238Y-113855238D01*
X81140476Y-113950476D01*
X81188095Y-114045714D01*
G04 #@! TO.C,C2*
X98853333Y-108097142D02*
X98805714Y-108144761D01*
X98662857Y-108192380D01*
X98567619Y-108192380D01*
X98424761Y-108144761D01*
X98329523Y-108049523D01*
X98281904Y-107954285D01*
X98234285Y-107763809D01*
X98234285Y-107620952D01*
X98281904Y-107430476D01*
X98329523Y-107335238D01*
X98424761Y-107240000D01*
X98567619Y-107192380D01*
X98662857Y-107192380D01*
X98805714Y-107240000D01*
X98853333Y-107287619D01*
X99234285Y-107287619D02*
X99281904Y-107240000D01*
X99377142Y-107192380D01*
X99615238Y-107192380D01*
X99710476Y-107240000D01*
X99758095Y-107287619D01*
X99805714Y-107382857D01*
X99805714Y-107478095D01*
X99758095Y-107620952D01*
X99186666Y-108192380D01*
X99805714Y-108192380D01*
G04 #@! TO.C,C3*
X93773333Y-62417142D02*
X93725714Y-62464761D01*
X93582857Y-62512380D01*
X93487619Y-62512380D01*
X93344761Y-62464761D01*
X93249523Y-62369523D01*
X93201904Y-62274285D01*
X93154285Y-62083809D01*
X93154285Y-61940952D01*
X93201904Y-61750476D01*
X93249523Y-61655238D01*
X93344761Y-61560000D01*
X93487619Y-61512380D01*
X93582857Y-61512380D01*
X93725714Y-61560000D01*
X93773333Y-61607619D01*
X94106666Y-61512380D02*
X94725714Y-61512380D01*
X94392380Y-61893333D01*
X94535238Y-61893333D01*
X94630476Y-61940952D01*
X94678095Y-61988571D01*
X94725714Y-62083809D01*
X94725714Y-62321904D01*
X94678095Y-62417142D01*
X94630476Y-62464761D01*
X94535238Y-62512380D01*
X94249523Y-62512380D01*
X94154285Y-62464761D01*
X94106666Y-62417142D01*
G04 #@! TO.C,C4*
X40433333Y-64957142D02*
X40385714Y-65004761D01*
X40242857Y-65052380D01*
X40147619Y-65052380D01*
X40004761Y-65004761D01*
X39909523Y-64909523D01*
X39861904Y-64814285D01*
X39814285Y-64623809D01*
X39814285Y-64480952D01*
X39861904Y-64290476D01*
X39909523Y-64195238D01*
X40004761Y-64100000D01*
X40147619Y-64052380D01*
X40242857Y-64052380D01*
X40385714Y-64100000D01*
X40433333Y-64147619D01*
X41290476Y-64385714D02*
X41290476Y-65052380D01*
X41052380Y-64004761D02*
X40814285Y-64719047D01*
X41433333Y-64719047D01*
G04 #@! TO.C,C5*
X47137142Y-70056666D02*
X47184761Y-70104285D01*
X47232380Y-70247142D01*
X47232380Y-70342380D01*
X47184761Y-70485238D01*
X47089523Y-70580476D01*
X46994285Y-70628095D01*
X46803809Y-70675714D01*
X46660952Y-70675714D01*
X46470476Y-70628095D01*
X46375238Y-70580476D01*
X46280000Y-70485238D01*
X46232380Y-70342380D01*
X46232380Y-70247142D01*
X46280000Y-70104285D01*
X46327619Y-70056666D01*
X46232380Y-69151904D02*
X46232380Y-69628095D01*
X46708571Y-69675714D01*
X46660952Y-69628095D01*
X46613333Y-69532857D01*
X46613333Y-69294761D01*
X46660952Y-69199523D01*
X46708571Y-69151904D01*
X46803809Y-69104285D01*
X47041904Y-69104285D01*
X47137142Y-69151904D01*
X47184761Y-69199523D01*
X47232380Y-69294761D01*
X47232380Y-69532857D01*
X47184761Y-69628095D01*
X47137142Y-69675714D01*
G04 #@! TO.C,C6*
X131953333Y-76727142D02*
X131905714Y-76774761D01*
X131762857Y-76822380D01*
X131667619Y-76822380D01*
X131524761Y-76774761D01*
X131429523Y-76679523D01*
X131381904Y-76584285D01*
X131334285Y-76393809D01*
X131334285Y-76250952D01*
X131381904Y-76060476D01*
X131429523Y-75965238D01*
X131524761Y-75870000D01*
X131667619Y-75822380D01*
X131762857Y-75822380D01*
X131905714Y-75870000D01*
X131953333Y-75917619D01*
X132810476Y-75822380D02*
X132620000Y-75822380D01*
X132524761Y-75870000D01*
X132477142Y-75917619D01*
X132381904Y-76060476D01*
X132334285Y-76250952D01*
X132334285Y-76631904D01*
X132381904Y-76727142D01*
X132429523Y-76774761D01*
X132524761Y-76822380D01*
X132715238Y-76822380D01*
X132810476Y-76774761D01*
X132858095Y-76727142D01*
X132905714Y-76631904D01*
X132905714Y-76393809D01*
X132858095Y-76298571D01*
X132810476Y-76250952D01*
X132715238Y-76203333D01*
X132524761Y-76203333D01*
X132429523Y-76250952D01*
X132381904Y-76298571D01*
X132334285Y-76393809D01*
G04 #@! TO.C,C7*
X131953333Y-84387142D02*
X131905714Y-84434761D01*
X131762857Y-84482380D01*
X131667619Y-84482380D01*
X131524761Y-84434761D01*
X131429523Y-84339523D01*
X131381904Y-84244285D01*
X131334285Y-84053809D01*
X131334285Y-83910952D01*
X131381904Y-83720476D01*
X131429523Y-83625238D01*
X131524761Y-83530000D01*
X131667619Y-83482380D01*
X131762857Y-83482380D01*
X131905714Y-83530000D01*
X131953333Y-83577619D01*
X132286666Y-83482380D02*
X132953333Y-83482380D01*
X132524761Y-84482380D01*
G04 #@! TO.C,C8*
X42973333Y-32227142D02*
X42925714Y-32274761D01*
X42782857Y-32322380D01*
X42687619Y-32322380D01*
X42544761Y-32274761D01*
X42449523Y-32179523D01*
X42401904Y-32084285D01*
X42354285Y-31893809D01*
X42354285Y-31750952D01*
X42401904Y-31560476D01*
X42449523Y-31465238D01*
X42544761Y-31370000D01*
X42687619Y-31322380D01*
X42782857Y-31322380D01*
X42925714Y-31370000D01*
X42973333Y-31417619D01*
X43544761Y-31750952D02*
X43449523Y-31703333D01*
X43401904Y-31655714D01*
X43354285Y-31560476D01*
X43354285Y-31512857D01*
X43401904Y-31417619D01*
X43449523Y-31370000D01*
X43544761Y-31322380D01*
X43735238Y-31322380D01*
X43830476Y-31370000D01*
X43878095Y-31417619D01*
X43925714Y-31512857D01*
X43925714Y-31560476D01*
X43878095Y-31655714D01*
X43830476Y-31703333D01*
X43735238Y-31750952D01*
X43544761Y-31750952D01*
X43449523Y-31798571D01*
X43401904Y-31846190D01*
X43354285Y-31941428D01*
X43354285Y-32131904D01*
X43401904Y-32227142D01*
X43449523Y-32274761D01*
X43544761Y-32322380D01*
X43735238Y-32322380D01*
X43830476Y-32274761D01*
X43878095Y-32227142D01*
X43925714Y-32131904D01*
X43925714Y-31941428D01*
X43878095Y-31846190D01*
X43830476Y-31798571D01*
X43735238Y-31750952D01*
G04 #@! TO.C,C9*
X126873333Y-33587142D02*
X126825714Y-33634761D01*
X126682857Y-33682380D01*
X126587619Y-33682380D01*
X126444761Y-33634761D01*
X126349523Y-33539523D01*
X126301904Y-33444285D01*
X126254285Y-33253809D01*
X126254285Y-33110952D01*
X126301904Y-32920476D01*
X126349523Y-32825238D01*
X126444761Y-32730000D01*
X126587619Y-32682380D01*
X126682857Y-32682380D01*
X126825714Y-32730000D01*
X126873333Y-32777619D01*
X127349523Y-33682380D02*
X127540000Y-33682380D01*
X127635238Y-33634761D01*
X127682857Y-33587142D01*
X127778095Y-33444285D01*
X127825714Y-33253809D01*
X127825714Y-32872857D01*
X127778095Y-32777619D01*
X127730476Y-32730000D01*
X127635238Y-32682380D01*
X127444761Y-32682380D01*
X127349523Y-32730000D01*
X127301904Y-32777619D01*
X127254285Y-32872857D01*
X127254285Y-33110952D01*
X127301904Y-33206190D01*
X127349523Y-33253809D01*
X127444761Y-33301428D01*
X127635238Y-33301428D01*
X127730476Y-33253809D01*
X127778095Y-33206190D01*
X127825714Y-33110952D01*
G04 #@! TO.C,C10*
X130127142Y-33497142D02*
X130079523Y-33544761D01*
X129936666Y-33592380D01*
X129841428Y-33592380D01*
X129698571Y-33544761D01*
X129603333Y-33449523D01*
X129555714Y-33354285D01*
X129508095Y-33163809D01*
X129508095Y-33020952D01*
X129555714Y-32830476D01*
X129603333Y-32735238D01*
X129698571Y-32640000D01*
X129841428Y-32592380D01*
X129936666Y-32592380D01*
X130079523Y-32640000D01*
X130127142Y-32687619D01*
X131079523Y-33592380D02*
X130508095Y-33592380D01*
X130793809Y-33592380D02*
X130793809Y-32592380D01*
X130698571Y-32735238D01*
X130603333Y-32830476D01*
X130508095Y-32878095D01*
X131698571Y-32592380D02*
X131793809Y-32592380D01*
X131889047Y-32640000D01*
X131936666Y-32687619D01*
X131984285Y-32782857D01*
X132031904Y-32973333D01*
X132031904Y-33211428D01*
X131984285Y-33401904D01*
X131936666Y-33497142D01*
X131889047Y-33544761D01*
X131793809Y-33592380D01*
X131698571Y-33592380D01*
X131603333Y-33544761D01*
X131555714Y-33497142D01*
X131508095Y-33401904D01*
X131460476Y-33211428D01*
X131460476Y-32973333D01*
X131508095Y-32782857D01*
X131555714Y-32687619D01*
X131603333Y-32640000D01*
X131698571Y-32592380D01*
G04 #@! TO.C,C11*
X46307142Y-26817142D02*
X46259523Y-26864761D01*
X46116666Y-26912380D01*
X46021428Y-26912380D01*
X45878571Y-26864761D01*
X45783333Y-26769523D01*
X45735714Y-26674285D01*
X45688095Y-26483809D01*
X45688095Y-26340952D01*
X45735714Y-26150476D01*
X45783333Y-26055238D01*
X45878571Y-25960000D01*
X46021428Y-25912380D01*
X46116666Y-25912380D01*
X46259523Y-25960000D01*
X46307142Y-26007619D01*
X47259523Y-26912380D02*
X46688095Y-26912380D01*
X46973809Y-26912380D02*
X46973809Y-25912380D01*
X46878571Y-26055238D01*
X46783333Y-26150476D01*
X46688095Y-26198095D01*
X48211904Y-26912380D02*
X47640476Y-26912380D01*
X47926190Y-26912380D02*
X47926190Y-25912380D01*
X47830952Y-26055238D01*
X47735714Y-26150476D01*
X47640476Y-26198095D01*
G04 #@! TO.C,D1*
X85621904Y-46592380D02*
X85621904Y-45592380D01*
X85860000Y-45592380D01*
X86002857Y-45640000D01*
X86098095Y-45735238D01*
X86145714Y-45830476D01*
X86193333Y-46020952D01*
X86193333Y-46163809D01*
X86145714Y-46354285D01*
X86098095Y-46449523D01*
X86002857Y-46544761D01*
X85860000Y-46592380D01*
X85621904Y-46592380D01*
X87145714Y-46592380D02*
X86574285Y-46592380D01*
X86860000Y-46592380D02*
X86860000Y-45592380D01*
X86764761Y-45735238D01*
X86669523Y-45830476D01*
X86574285Y-45878095D01*
X81018095Y-46912380D02*
X81018095Y-45912380D01*
X81589523Y-46912380D02*
X81160952Y-46340952D01*
X81589523Y-45912380D02*
X81018095Y-46483809D01*
G04 #@! TO.C,D2*
X86392380Y-57888095D02*
X85392380Y-57888095D01*
X85392380Y-57650000D01*
X85440000Y-57507142D01*
X85535238Y-57411904D01*
X85630476Y-57364285D01*
X85820952Y-57316666D01*
X85963809Y-57316666D01*
X86154285Y-57364285D01*
X86249523Y-57411904D01*
X86344761Y-57507142D01*
X86392380Y-57650000D01*
X86392380Y-57888095D01*
X85487619Y-56935714D02*
X85440000Y-56888095D01*
X85392380Y-56792857D01*
X85392380Y-56554761D01*
X85440000Y-56459523D01*
X85487619Y-56411904D01*
X85582857Y-56364285D01*
X85678095Y-56364285D01*
X85820952Y-56411904D01*
X86392380Y-56983333D01*
X86392380Y-56364285D01*
X86072380Y-52331904D02*
X85072380Y-52331904D01*
X86072380Y-51760476D02*
X85500952Y-52189047D01*
X85072380Y-51760476D02*
X85643809Y-52331904D01*
G04 #@! TO.C,Dz1*
X41942380Y-84962857D02*
X40942380Y-84962857D01*
X40942380Y-84724761D01*
X40990000Y-84581904D01*
X41085238Y-84486666D01*
X41180476Y-84439047D01*
X41370952Y-84391428D01*
X41513809Y-84391428D01*
X41704285Y-84439047D01*
X41799523Y-84486666D01*
X41894761Y-84581904D01*
X41942380Y-84724761D01*
X41942380Y-84962857D01*
X41275714Y-84058095D02*
X41275714Y-83534285D01*
X41942380Y-84058095D01*
X41942380Y-83534285D01*
X41942380Y-82629523D02*
X41942380Y-83200952D01*
X41942380Y-82915238D02*
X40942380Y-82915238D01*
X41085238Y-83010476D01*
X41180476Y-83105714D01*
X41228095Y-83200952D01*
X41622380Y-79001904D02*
X40622380Y-79001904D01*
X41622380Y-78430476D02*
X41050952Y-78859047D01*
X40622380Y-78430476D02*
X41193809Y-79001904D01*
G04 #@! TO.C,HS1*
X118116904Y-53832380D02*
X118116904Y-52832380D01*
X118116904Y-53308571D02*
X118688333Y-53308571D01*
X118688333Y-53832380D02*
X118688333Y-52832380D01*
X119116904Y-53784761D02*
X119259761Y-53832380D01*
X119497857Y-53832380D01*
X119593095Y-53784761D01*
X119640714Y-53737142D01*
X119688333Y-53641904D01*
X119688333Y-53546666D01*
X119640714Y-53451428D01*
X119593095Y-53403809D01*
X119497857Y-53356190D01*
X119307380Y-53308571D01*
X119212142Y-53260952D01*
X119164523Y-53213333D01*
X119116904Y-53118095D01*
X119116904Y-53022857D01*
X119164523Y-52927619D01*
X119212142Y-52880000D01*
X119307380Y-52832380D01*
X119545476Y-52832380D01*
X119688333Y-52880000D01*
X120640714Y-53832380D02*
X120069285Y-53832380D01*
X120355000Y-53832380D02*
X120355000Y-52832380D01*
X120259761Y-52975238D01*
X120164523Y-53070476D01*
X120069285Y-53118095D01*
G04 #@! TO.C,HS2*
X53346904Y-53832380D02*
X53346904Y-52832380D01*
X53346904Y-53308571D02*
X53918333Y-53308571D01*
X53918333Y-53832380D02*
X53918333Y-52832380D01*
X54346904Y-53784761D02*
X54489761Y-53832380D01*
X54727857Y-53832380D01*
X54823095Y-53784761D01*
X54870714Y-53737142D01*
X54918333Y-53641904D01*
X54918333Y-53546666D01*
X54870714Y-53451428D01*
X54823095Y-53403809D01*
X54727857Y-53356190D01*
X54537380Y-53308571D01*
X54442142Y-53260952D01*
X54394523Y-53213333D01*
X54346904Y-53118095D01*
X54346904Y-53022857D01*
X54394523Y-52927619D01*
X54442142Y-52880000D01*
X54537380Y-52832380D01*
X54775476Y-52832380D01*
X54918333Y-52880000D01*
X55299285Y-52927619D02*
X55346904Y-52880000D01*
X55442142Y-52832380D01*
X55680238Y-52832380D01*
X55775476Y-52880000D01*
X55823095Y-52927619D01*
X55870714Y-53022857D01*
X55870714Y-53118095D01*
X55823095Y-53260952D01*
X55251666Y-53832380D01*
X55870714Y-53832380D01*
G04 #@! TO.C,J2*
X63166666Y-25202380D02*
X63166666Y-25916666D01*
X63119047Y-26059523D01*
X63023809Y-26154761D01*
X62880952Y-26202380D01*
X62785714Y-26202380D01*
X63595238Y-25297619D02*
X63642857Y-25250000D01*
X63738095Y-25202380D01*
X63976190Y-25202380D01*
X64071428Y-25250000D01*
X64119047Y-25297619D01*
X64166666Y-25392857D01*
X64166666Y-25488095D01*
X64119047Y-25630952D01*
X63547619Y-26202380D01*
X64166666Y-26202380D01*
G04 #@! TO.C,J3*
X106346666Y-25202380D02*
X106346666Y-25916666D01*
X106299047Y-26059523D01*
X106203809Y-26154761D01*
X106060952Y-26202380D01*
X105965714Y-26202380D01*
X106727619Y-25202380D02*
X107346666Y-25202380D01*
X107013333Y-25583333D01*
X107156190Y-25583333D01*
X107251428Y-25630952D01*
X107299047Y-25678571D01*
X107346666Y-25773809D01*
X107346666Y-26011904D01*
X107299047Y-26107142D01*
X107251428Y-26154761D01*
X107156190Y-26202380D01*
X106870476Y-26202380D01*
X106775238Y-26154761D01*
X106727619Y-26107142D01*
G04 #@! TO.C,Q1*
X60605337Y-94503973D02*
X60504322Y-94537645D01*
X60369635Y-94537645D01*
X60167604Y-94537645D01*
X60066589Y-94571317D01*
X59999246Y-94638660D01*
X60201276Y-94773347D02*
X60100261Y-94807019D01*
X59965574Y-94807019D01*
X59797215Y-94706004D01*
X59561513Y-94470301D01*
X59460498Y-94301943D01*
X59460498Y-94167256D01*
X59494169Y-94066240D01*
X59628856Y-93931553D01*
X59729872Y-93897882D01*
X59864559Y-93897882D01*
X60032917Y-93998897D01*
X60268620Y-94234599D01*
X60369635Y-94402958D01*
X60369635Y-94537645D01*
X60335963Y-94638660D01*
X60201276Y-94773347D01*
X61177757Y-93796866D02*
X60773696Y-94200927D01*
X60975726Y-93998897D02*
X60268620Y-93291790D01*
X60302291Y-93460149D01*
X60302291Y-93594836D01*
X60268620Y-93695851D01*
G04 #@! TO.C,Q2*
X46894761Y-102357619D02*
X46799523Y-102310000D01*
X46704285Y-102214761D01*
X46561428Y-102071904D01*
X46466190Y-102024285D01*
X46370952Y-102024285D01*
X46418571Y-102262380D02*
X46323333Y-102214761D01*
X46228095Y-102119523D01*
X46180476Y-101929047D01*
X46180476Y-101595714D01*
X46228095Y-101405238D01*
X46323333Y-101310000D01*
X46418571Y-101262380D01*
X46609047Y-101262380D01*
X46704285Y-101310000D01*
X46799523Y-101405238D01*
X46847142Y-101595714D01*
X46847142Y-101929047D01*
X46799523Y-102119523D01*
X46704285Y-102214761D01*
X46609047Y-102262380D01*
X46418571Y-102262380D01*
X47228095Y-101357619D02*
X47275714Y-101310000D01*
X47370952Y-101262380D01*
X47609047Y-101262380D01*
X47704285Y-101310000D01*
X47751904Y-101357619D01*
X47799523Y-101452857D01*
X47799523Y-101548095D01*
X47751904Y-101690952D01*
X47180476Y-102262380D01*
X47799523Y-102262380D01*
G04 #@! TO.C,Q3*
X59177619Y-87725238D02*
X59130000Y-87820476D01*
X59034761Y-87915714D01*
X58891904Y-88058571D01*
X58844285Y-88153809D01*
X58844285Y-88249047D01*
X59082380Y-88201428D02*
X59034761Y-88296666D01*
X58939523Y-88391904D01*
X58749047Y-88439523D01*
X58415714Y-88439523D01*
X58225238Y-88391904D01*
X58130000Y-88296666D01*
X58082380Y-88201428D01*
X58082380Y-88010952D01*
X58130000Y-87915714D01*
X58225238Y-87820476D01*
X58415714Y-87772857D01*
X58749047Y-87772857D01*
X58939523Y-87820476D01*
X59034761Y-87915714D01*
X59082380Y-88010952D01*
X59082380Y-88201428D01*
X58082380Y-87439523D02*
X58082380Y-86820476D01*
X58463333Y-87153809D01*
X58463333Y-87010952D01*
X58510952Y-86915714D01*
X58558571Y-86868095D01*
X58653809Y-86820476D01*
X58891904Y-86820476D01*
X58987142Y-86868095D01*
X59034761Y-86915714D01*
X59082380Y-87010952D01*
X59082380Y-87296666D01*
X59034761Y-87391904D01*
X58987142Y-87439523D01*
G04 #@! TO.C,Q4*
X97404836Y-105134425D02*
X97371164Y-105033410D01*
X97371164Y-104898723D01*
X97371164Y-104696692D01*
X97337492Y-104595677D01*
X97270149Y-104528334D01*
X97135462Y-104730364D02*
X97101790Y-104629349D01*
X97101790Y-104494662D01*
X97202805Y-104326303D01*
X97438508Y-104090601D01*
X97606866Y-103989586D01*
X97741553Y-103989586D01*
X97842569Y-104023257D01*
X97977256Y-104157944D01*
X98010927Y-104258960D01*
X98010927Y-104393647D01*
X97909912Y-104562005D01*
X97674210Y-104797708D01*
X97505851Y-104898723D01*
X97371164Y-104898723D01*
X97270149Y-104865051D01*
X97135462Y-104730364D01*
X98516004Y-105168097D02*
X98044599Y-105639501D01*
X98617019Y-104730364D02*
X97943584Y-105067082D01*
X98381317Y-105504814D01*
G04 #@! TO.C,Q5*
X106820887Y-112010476D02*
X106787215Y-111909461D01*
X106787215Y-111774774D01*
X106787215Y-111572743D01*
X106753543Y-111471728D01*
X106686200Y-111404385D01*
X106551513Y-111606415D02*
X106517841Y-111505400D01*
X106517841Y-111370713D01*
X106618856Y-111202354D01*
X106854559Y-110966652D01*
X107022917Y-110865637D01*
X107157604Y-110865637D01*
X107258620Y-110899308D01*
X107393307Y-111033995D01*
X107426978Y-111135011D01*
X107426978Y-111269698D01*
X107325963Y-111438056D01*
X107090261Y-111673759D01*
X106921902Y-111774774D01*
X106787215Y-111774774D01*
X106686200Y-111741102D01*
X106551513Y-111606415D01*
X108201429Y-111842117D02*
X107864711Y-111505400D01*
X107494322Y-111808446D01*
X107561665Y-111808446D01*
X107662681Y-111842117D01*
X107831039Y-112010476D01*
X107864711Y-112111491D01*
X107864711Y-112178835D01*
X107831039Y-112279850D01*
X107662681Y-112448209D01*
X107561665Y-112481881D01*
X107494322Y-112481881D01*
X107393307Y-112448209D01*
X107224948Y-112279850D01*
X107191276Y-112178835D01*
X107191276Y-112111491D01*
G04 #@! TO.C,Q6*
X115057619Y-92805238D02*
X115010000Y-92900476D01*
X114914761Y-92995714D01*
X114771904Y-93138571D01*
X114724285Y-93233809D01*
X114724285Y-93329047D01*
X114962380Y-93281428D02*
X114914761Y-93376666D01*
X114819523Y-93471904D01*
X114629047Y-93519523D01*
X114295714Y-93519523D01*
X114105238Y-93471904D01*
X114010000Y-93376666D01*
X113962380Y-93281428D01*
X113962380Y-93090952D01*
X114010000Y-92995714D01*
X114105238Y-92900476D01*
X114295714Y-92852857D01*
X114629047Y-92852857D01*
X114819523Y-92900476D01*
X114914761Y-92995714D01*
X114962380Y-93090952D01*
X114962380Y-93281428D01*
X113962380Y-91995714D02*
X113962380Y-92186190D01*
X114010000Y-92281428D01*
X114057619Y-92329047D01*
X114200476Y-92424285D01*
X114390952Y-92471904D01*
X114771904Y-92471904D01*
X114867142Y-92424285D01*
X114914761Y-92376666D01*
X114962380Y-92281428D01*
X114962380Y-92090952D01*
X114914761Y-91995714D01*
X114867142Y-91948095D01*
X114771904Y-91900476D01*
X114533809Y-91900476D01*
X114438571Y-91948095D01*
X114390952Y-91995714D01*
X114343333Y-92090952D01*
X114343333Y-92281428D01*
X114390952Y-92376666D01*
X114438571Y-92424285D01*
X114533809Y-92471904D01*
G04 #@! TO.C,Q7*
X99817619Y-92805238D02*
X99770000Y-92900476D01*
X99674761Y-92995714D01*
X99531904Y-93138571D01*
X99484285Y-93233809D01*
X99484285Y-93329047D01*
X99722380Y-93281428D02*
X99674761Y-93376666D01*
X99579523Y-93471904D01*
X99389047Y-93519523D01*
X99055714Y-93519523D01*
X98865238Y-93471904D01*
X98770000Y-93376666D01*
X98722380Y-93281428D01*
X98722380Y-93090952D01*
X98770000Y-92995714D01*
X98865238Y-92900476D01*
X99055714Y-92852857D01*
X99389047Y-92852857D01*
X99579523Y-92900476D01*
X99674761Y-92995714D01*
X99722380Y-93090952D01*
X99722380Y-93281428D01*
X98722380Y-92519523D02*
X98722380Y-91852857D01*
X99722380Y-92281428D01*
G04 #@! TO.C,Q8*
X81184761Y-66007619D02*
X81089523Y-65960000D01*
X80994285Y-65864761D01*
X80851428Y-65721904D01*
X80756190Y-65674285D01*
X80660952Y-65674285D01*
X80708571Y-65912380D02*
X80613333Y-65864761D01*
X80518095Y-65769523D01*
X80470476Y-65579047D01*
X80470476Y-65245714D01*
X80518095Y-65055238D01*
X80613333Y-64960000D01*
X80708571Y-64912380D01*
X80899047Y-64912380D01*
X80994285Y-64960000D01*
X81089523Y-65055238D01*
X81137142Y-65245714D01*
X81137142Y-65579047D01*
X81089523Y-65769523D01*
X80994285Y-65864761D01*
X80899047Y-65912380D01*
X80708571Y-65912380D01*
X81708571Y-65340952D02*
X81613333Y-65293333D01*
X81565714Y-65245714D01*
X81518095Y-65150476D01*
X81518095Y-65102857D01*
X81565714Y-65007619D01*
X81613333Y-64960000D01*
X81708571Y-64912380D01*
X81899047Y-64912380D01*
X81994285Y-64960000D01*
X82041904Y-65007619D01*
X82089523Y-65102857D01*
X82089523Y-65150476D01*
X82041904Y-65245714D01*
X81994285Y-65293333D01*
X81899047Y-65340952D01*
X81708571Y-65340952D01*
X81613333Y-65388571D01*
X81565714Y-65436190D01*
X81518095Y-65531428D01*
X81518095Y-65721904D01*
X81565714Y-65817142D01*
X81613333Y-65864761D01*
X81708571Y-65912380D01*
X81899047Y-65912380D01*
X81994285Y-65864761D01*
X82041904Y-65817142D01*
X82089523Y-65721904D01*
X82089523Y-65531428D01*
X82041904Y-65436190D01*
X81994285Y-65388571D01*
X81899047Y-65340952D01*
G04 #@! TO.C,Q9*
X118014761Y-66007619D02*
X117919523Y-65960000D01*
X117824285Y-65864761D01*
X117681428Y-65721904D01*
X117586190Y-65674285D01*
X117490952Y-65674285D01*
X117538571Y-65912380D02*
X117443333Y-65864761D01*
X117348095Y-65769523D01*
X117300476Y-65579047D01*
X117300476Y-65245714D01*
X117348095Y-65055238D01*
X117443333Y-64960000D01*
X117538571Y-64912380D01*
X117729047Y-64912380D01*
X117824285Y-64960000D01*
X117919523Y-65055238D01*
X117967142Y-65245714D01*
X117967142Y-65579047D01*
X117919523Y-65769523D01*
X117824285Y-65864761D01*
X117729047Y-65912380D01*
X117538571Y-65912380D01*
X118443333Y-65912380D02*
X118633809Y-65912380D01*
X118729047Y-65864761D01*
X118776666Y-65817142D01*
X118871904Y-65674285D01*
X118919523Y-65483809D01*
X118919523Y-65102857D01*
X118871904Y-65007619D01*
X118824285Y-64960000D01*
X118729047Y-64912380D01*
X118538571Y-64912380D01*
X118443333Y-64960000D01*
X118395714Y-65007619D01*
X118348095Y-65102857D01*
X118348095Y-65340952D01*
X118395714Y-65436190D01*
X118443333Y-65483809D01*
X118538571Y-65531428D01*
X118729047Y-65531428D01*
X118824285Y-65483809D01*
X118871904Y-65436190D01*
X118919523Y-65340952D01*
G04 #@! TO.C,Q10*
X54038571Y-55967619D02*
X53943333Y-55920000D01*
X53848095Y-55824761D01*
X53705238Y-55681904D01*
X53610000Y-55634285D01*
X53514761Y-55634285D01*
X53562380Y-55872380D02*
X53467142Y-55824761D01*
X53371904Y-55729523D01*
X53324285Y-55539047D01*
X53324285Y-55205714D01*
X53371904Y-55015238D01*
X53467142Y-54920000D01*
X53562380Y-54872380D01*
X53752857Y-54872380D01*
X53848095Y-54920000D01*
X53943333Y-55015238D01*
X53990952Y-55205714D01*
X53990952Y-55539047D01*
X53943333Y-55729523D01*
X53848095Y-55824761D01*
X53752857Y-55872380D01*
X53562380Y-55872380D01*
X54943333Y-55872380D02*
X54371904Y-55872380D01*
X54657619Y-55872380D02*
X54657619Y-54872380D01*
X54562380Y-55015238D01*
X54467142Y-55110476D01*
X54371904Y-55158095D01*
X55562380Y-54872380D02*
X55657619Y-54872380D01*
X55752857Y-54920000D01*
X55800476Y-54967619D01*
X55848095Y-55062857D01*
X55895714Y-55253333D01*
X55895714Y-55491428D01*
X55848095Y-55681904D01*
X55800476Y-55777142D01*
X55752857Y-55824761D01*
X55657619Y-55872380D01*
X55562380Y-55872380D01*
X55467142Y-55824761D01*
X55419523Y-55777142D01*
X55371904Y-55681904D01*
X55324285Y-55491428D01*
X55324285Y-55253333D01*
X55371904Y-55062857D01*
X55419523Y-54967619D01*
X55467142Y-54920000D01*
X55562380Y-54872380D01*
G04 #@! TO.C,Q11*
X59118571Y-64737619D02*
X59023333Y-64690000D01*
X58928095Y-64594761D01*
X58785238Y-64451904D01*
X58690000Y-64404285D01*
X58594761Y-64404285D01*
X58642380Y-64642380D02*
X58547142Y-64594761D01*
X58451904Y-64499523D01*
X58404285Y-64309047D01*
X58404285Y-63975714D01*
X58451904Y-63785238D01*
X58547142Y-63690000D01*
X58642380Y-63642380D01*
X58832857Y-63642380D01*
X58928095Y-63690000D01*
X59023333Y-63785238D01*
X59070952Y-63975714D01*
X59070952Y-64309047D01*
X59023333Y-64499523D01*
X58928095Y-64594761D01*
X58832857Y-64642380D01*
X58642380Y-64642380D01*
X60023333Y-64642380D02*
X59451904Y-64642380D01*
X59737619Y-64642380D02*
X59737619Y-63642380D01*
X59642380Y-63785238D01*
X59547142Y-63880476D01*
X59451904Y-63928095D01*
X60975714Y-64642380D02*
X60404285Y-64642380D01*
X60690000Y-64642380D02*
X60690000Y-63642380D01*
X60594761Y-63785238D01*
X60499523Y-63880476D01*
X60404285Y-63928095D01*
G04 #@! TO.C,Q12*
X118808571Y-55967619D02*
X118713333Y-55920000D01*
X118618095Y-55824761D01*
X118475238Y-55681904D01*
X118380000Y-55634285D01*
X118284761Y-55634285D01*
X118332380Y-55872380D02*
X118237142Y-55824761D01*
X118141904Y-55729523D01*
X118094285Y-55539047D01*
X118094285Y-55205714D01*
X118141904Y-55015238D01*
X118237142Y-54920000D01*
X118332380Y-54872380D01*
X118522857Y-54872380D01*
X118618095Y-54920000D01*
X118713333Y-55015238D01*
X118760952Y-55205714D01*
X118760952Y-55539047D01*
X118713333Y-55729523D01*
X118618095Y-55824761D01*
X118522857Y-55872380D01*
X118332380Y-55872380D01*
X119713333Y-55872380D02*
X119141904Y-55872380D01*
X119427619Y-55872380D02*
X119427619Y-54872380D01*
X119332380Y-55015238D01*
X119237142Y-55110476D01*
X119141904Y-55158095D01*
X120094285Y-54967619D02*
X120141904Y-54920000D01*
X120237142Y-54872380D01*
X120475238Y-54872380D01*
X120570476Y-54920000D01*
X120618095Y-54967619D01*
X120665714Y-55062857D01*
X120665714Y-55158095D01*
X120618095Y-55300952D01*
X120046666Y-55872380D01*
X120665714Y-55872380D01*
G04 #@! TO.C,Q13*
X92138571Y-52407619D02*
X92043333Y-52360000D01*
X91948095Y-52264761D01*
X91805238Y-52121904D01*
X91710000Y-52074285D01*
X91614761Y-52074285D01*
X91662380Y-52312380D02*
X91567142Y-52264761D01*
X91471904Y-52169523D01*
X91424285Y-51979047D01*
X91424285Y-51645714D01*
X91471904Y-51455238D01*
X91567142Y-51360000D01*
X91662380Y-51312380D01*
X91852857Y-51312380D01*
X91948095Y-51360000D01*
X92043333Y-51455238D01*
X92090952Y-51645714D01*
X92090952Y-51979047D01*
X92043333Y-52169523D01*
X91948095Y-52264761D01*
X91852857Y-52312380D01*
X91662380Y-52312380D01*
X93043333Y-52312380D02*
X92471904Y-52312380D01*
X92757619Y-52312380D02*
X92757619Y-51312380D01*
X92662380Y-51455238D01*
X92567142Y-51550476D01*
X92471904Y-51598095D01*
X93376666Y-51312380D02*
X93995714Y-51312380D01*
X93662380Y-51693333D01*
X93805238Y-51693333D01*
X93900476Y-51740952D01*
X93948095Y-51788571D01*
X93995714Y-51883809D01*
X93995714Y-52121904D01*
X93948095Y-52217142D01*
X93900476Y-52264761D01*
X93805238Y-52312380D01*
X93519523Y-52312380D01*
X93424285Y-52264761D01*
X93376666Y-52217142D01*
G04 #@! TO.C,R1*
X59972380Y-114466666D02*
X59496190Y-114800000D01*
X59972380Y-115038095D02*
X58972380Y-115038095D01*
X58972380Y-114657142D01*
X59020000Y-114561904D01*
X59067619Y-114514285D01*
X59162857Y-114466666D01*
X59305714Y-114466666D01*
X59400952Y-114514285D01*
X59448571Y-114561904D01*
X59496190Y-114657142D01*
X59496190Y-115038095D01*
X59972380Y-113514285D02*
X59972380Y-114085714D01*
X59972380Y-113800000D02*
X58972380Y-113800000D01*
X59115238Y-113895238D01*
X59210476Y-113990476D01*
X59258095Y-114085714D01*
G04 #@! TO.C,R2*
X90452380Y-111926666D02*
X89976190Y-112260000D01*
X90452380Y-112498095D02*
X89452380Y-112498095D01*
X89452380Y-112117142D01*
X89500000Y-112021904D01*
X89547619Y-111974285D01*
X89642857Y-111926666D01*
X89785714Y-111926666D01*
X89880952Y-111974285D01*
X89928571Y-112021904D01*
X89976190Y-112117142D01*
X89976190Y-112498095D01*
X89547619Y-111545714D02*
X89500000Y-111498095D01*
X89452380Y-111402857D01*
X89452380Y-111164761D01*
X89500000Y-111069523D01*
X89547619Y-111021904D01*
X89642857Y-110974285D01*
X89738095Y-110974285D01*
X89880952Y-111021904D01*
X90452380Y-111593333D01*
X90452380Y-110974285D01*
G04 #@! TO.C,R3*
X48542380Y-110656666D02*
X48066190Y-110990000D01*
X48542380Y-111228095D02*
X47542380Y-111228095D01*
X47542380Y-110847142D01*
X47590000Y-110751904D01*
X47637619Y-110704285D01*
X47732857Y-110656666D01*
X47875714Y-110656666D01*
X47970952Y-110704285D01*
X48018571Y-110751904D01*
X48066190Y-110847142D01*
X48066190Y-111228095D01*
X47542380Y-110323333D02*
X47542380Y-109704285D01*
X47923333Y-110037619D01*
X47923333Y-109894761D01*
X47970952Y-109799523D01*
X48018571Y-109751904D01*
X48113809Y-109704285D01*
X48351904Y-109704285D01*
X48447142Y-109751904D01*
X48494761Y-109799523D01*
X48542380Y-109894761D01*
X48542380Y-110180476D01*
X48494761Y-110275714D01*
X48447142Y-110323333D01*
G04 #@! TO.C,R4*
X65392380Y-87796666D02*
X64916190Y-88130000D01*
X65392380Y-88368095D02*
X64392380Y-88368095D01*
X64392380Y-87987142D01*
X64440000Y-87891904D01*
X64487619Y-87844285D01*
X64582857Y-87796666D01*
X64725714Y-87796666D01*
X64820952Y-87844285D01*
X64868571Y-87891904D01*
X64916190Y-87987142D01*
X64916190Y-88368095D01*
X64725714Y-86939523D02*
X65392380Y-86939523D01*
X64344761Y-87177619D02*
X65059047Y-87415714D01*
X65059047Y-86796666D01*
G04 #@! TO.C,R5*
X42532380Y-83986666D02*
X42056190Y-84320000D01*
X42532380Y-84558095D02*
X41532380Y-84558095D01*
X41532380Y-84177142D01*
X41580000Y-84081904D01*
X41627619Y-84034285D01*
X41722857Y-83986666D01*
X41865714Y-83986666D01*
X41960952Y-84034285D01*
X42008571Y-84081904D01*
X42056190Y-84177142D01*
X42056190Y-84558095D01*
X41532380Y-83081904D02*
X41532380Y-83558095D01*
X42008571Y-83605714D01*
X41960952Y-83558095D01*
X41913333Y-83462857D01*
X41913333Y-83224761D01*
X41960952Y-83129523D01*
X42008571Y-83081904D01*
X42103809Y-83034285D01*
X42341904Y-83034285D01*
X42437142Y-83081904D01*
X42484761Y-83129523D01*
X42532380Y-83224761D01*
X42532380Y-83462857D01*
X42484761Y-83558095D01*
X42437142Y-83605714D01*
G04 #@! TO.C,R6*
X98893333Y-114922380D02*
X98560000Y-114446190D01*
X98321904Y-114922380D02*
X98321904Y-113922380D01*
X98702857Y-113922380D01*
X98798095Y-113970000D01*
X98845714Y-114017619D01*
X98893333Y-114112857D01*
X98893333Y-114255714D01*
X98845714Y-114350952D01*
X98798095Y-114398571D01*
X98702857Y-114446190D01*
X98321904Y-114446190D01*
X99750476Y-113922380D02*
X99560000Y-113922380D01*
X99464761Y-113970000D01*
X99417142Y-114017619D01*
X99321904Y-114160476D01*
X99274285Y-114350952D01*
X99274285Y-114731904D01*
X99321904Y-114827142D01*
X99369523Y-114874761D01*
X99464761Y-114922380D01*
X99655238Y-114922380D01*
X99750476Y-114874761D01*
X99798095Y-114827142D01*
X99845714Y-114731904D01*
X99845714Y-114493809D01*
X99798095Y-114398571D01*
X99750476Y-114350952D01*
X99655238Y-114303333D01*
X99464761Y-114303333D01*
X99369523Y-114350952D01*
X99321904Y-114398571D01*
X99274285Y-114493809D01*
G04 #@! TO.C,R7*
X84923333Y-86642380D02*
X84590000Y-86166190D01*
X84351904Y-86642380D02*
X84351904Y-85642380D01*
X84732857Y-85642380D01*
X84828095Y-85690000D01*
X84875714Y-85737619D01*
X84923333Y-85832857D01*
X84923333Y-85975714D01*
X84875714Y-86070952D01*
X84828095Y-86118571D01*
X84732857Y-86166190D01*
X84351904Y-86166190D01*
X85256666Y-85642380D02*
X85923333Y-85642380D01*
X85494761Y-86642380D01*
G04 #@! TO.C,R8*
X105243333Y-78092380D02*
X104910000Y-77616190D01*
X104671904Y-78092380D02*
X104671904Y-77092380D01*
X105052857Y-77092380D01*
X105148095Y-77140000D01*
X105195714Y-77187619D01*
X105243333Y-77282857D01*
X105243333Y-77425714D01*
X105195714Y-77520952D01*
X105148095Y-77568571D01*
X105052857Y-77616190D01*
X104671904Y-77616190D01*
X105814761Y-77520952D02*
X105719523Y-77473333D01*
X105671904Y-77425714D01*
X105624285Y-77330476D01*
X105624285Y-77282857D01*
X105671904Y-77187619D01*
X105719523Y-77140000D01*
X105814761Y-77092380D01*
X106005238Y-77092380D01*
X106100476Y-77140000D01*
X106148095Y-77187619D01*
X106195714Y-77282857D01*
X106195714Y-77330476D01*
X106148095Y-77425714D01*
X106100476Y-77473333D01*
X106005238Y-77520952D01*
X105814761Y-77520952D01*
X105719523Y-77568571D01*
X105671904Y-77616190D01*
X105624285Y-77711428D01*
X105624285Y-77901904D01*
X105671904Y-77997142D01*
X105719523Y-78044761D01*
X105814761Y-78092380D01*
X106005238Y-78092380D01*
X106100476Y-78044761D01*
X106148095Y-77997142D01*
X106195714Y-77901904D01*
X106195714Y-77711428D01*
X106148095Y-77616190D01*
X106100476Y-77568571D01*
X106005238Y-77520952D01*
G04 #@! TO.C,R9*
X71742380Y-87796666D02*
X71266190Y-88130000D01*
X71742380Y-88368095D02*
X70742380Y-88368095D01*
X70742380Y-87987142D01*
X70790000Y-87891904D01*
X70837619Y-87844285D01*
X70932857Y-87796666D01*
X71075714Y-87796666D01*
X71170952Y-87844285D01*
X71218571Y-87891904D01*
X71266190Y-87987142D01*
X71266190Y-88368095D01*
X71742380Y-87320476D02*
X71742380Y-87130000D01*
X71694761Y-87034761D01*
X71647142Y-86987142D01*
X71504285Y-86891904D01*
X71313809Y-86844285D01*
X70932857Y-86844285D01*
X70837619Y-86891904D01*
X70790000Y-86939523D01*
X70742380Y-87034761D01*
X70742380Y-87225238D01*
X70790000Y-87320476D01*
X70837619Y-87368095D01*
X70932857Y-87415714D01*
X71170952Y-87415714D01*
X71266190Y-87368095D01*
X71313809Y-87320476D01*
X71361428Y-87225238D01*
X71361428Y-87034761D01*
X71313809Y-86939523D01*
X71266190Y-86891904D01*
X71170952Y-86844285D01*
G04 #@! TO.C,R10*
X84447142Y-76822380D02*
X84113809Y-76346190D01*
X83875714Y-76822380D02*
X83875714Y-75822380D01*
X84256666Y-75822380D01*
X84351904Y-75870000D01*
X84399523Y-75917619D01*
X84447142Y-76012857D01*
X84447142Y-76155714D01*
X84399523Y-76250952D01*
X84351904Y-76298571D01*
X84256666Y-76346190D01*
X83875714Y-76346190D01*
X85399523Y-76822380D02*
X84828095Y-76822380D01*
X85113809Y-76822380D02*
X85113809Y-75822380D01*
X85018571Y-75965238D01*
X84923333Y-76060476D01*
X84828095Y-76108095D01*
X86018571Y-75822380D02*
X86113809Y-75822380D01*
X86209047Y-75870000D01*
X86256666Y-75917619D01*
X86304285Y-76012857D01*
X86351904Y-76203333D01*
X86351904Y-76441428D01*
X86304285Y-76631904D01*
X86256666Y-76727142D01*
X86209047Y-76774761D01*
X86113809Y-76822380D01*
X86018571Y-76822380D01*
X85923333Y-76774761D01*
X85875714Y-76727142D01*
X85828095Y-76631904D01*
X85780476Y-76441428D01*
X85780476Y-76203333D01*
X85828095Y-76012857D01*
X85875714Y-75917619D01*
X85923333Y-75870000D01*
X86018571Y-75822380D01*
G04 #@! TO.C,R11*
X62857142Y-40012380D02*
X62523809Y-39536190D01*
X62285714Y-40012380D02*
X62285714Y-39012380D01*
X62666666Y-39012380D01*
X62761904Y-39060000D01*
X62809523Y-39107619D01*
X62857142Y-39202857D01*
X62857142Y-39345714D01*
X62809523Y-39440952D01*
X62761904Y-39488571D01*
X62666666Y-39536190D01*
X62285714Y-39536190D01*
X63809523Y-40012380D02*
X63238095Y-40012380D01*
X63523809Y-40012380D02*
X63523809Y-39012380D01*
X63428571Y-39155238D01*
X63333333Y-39250476D01*
X63238095Y-39298095D01*
X64761904Y-40012380D02*
X64190476Y-40012380D01*
X64476190Y-40012380D02*
X64476190Y-39012380D01*
X64380952Y-39155238D01*
X64285714Y-39250476D01*
X64190476Y-39298095D01*
G04 #@! TO.C,R12*
X108577142Y-40012380D02*
X108243809Y-39536190D01*
X108005714Y-40012380D02*
X108005714Y-39012380D01*
X108386666Y-39012380D01*
X108481904Y-39060000D01*
X108529523Y-39107619D01*
X108577142Y-39202857D01*
X108577142Y-39345714D01*
X108529523Y-39440952D01*
X108481904Y-39488571D01*
X108386666Y-39536190D01*
X108005714Y-39536190D01*
X109529523Y-40012380D02*
X108958095Y-40012380D01*
X109243809Y-40012380D02*
X109243809Y-39012380D01*
X109148571Y-39155238D01*
X109053333Y-39250476D01*
X108958095Y-39298095D01*
X109910476Y-39107619D02*
X109958095Y-39060000D01*
X110053333Y-39012380D01*
X110291428Y-39012380D01*
X110386666Y-39060000D01*
X110434285Y-39107619D01*
X110481904Y-39202857D01*
X110481904Y-39298095D01*
X110434285Y-39440952D01*
X109862857Y-40012380D01*
X110481904Y-40012380D01*
G04 #@! TO.C,R13*
X73012380Y-33662857D02*
X72536190Y-33996190D01*
X73012380Y-34234285D02*
X72012380Y-34234285D01*
X72012380Y-33853333D01*
X72060000Y-33758095D01*
X72107619Y-33710476D01*
X72202857Y-33662857D01*
X72345714Y-33662857D01*
X72440952Y-33710476D01*
X72488571Y-33758095D01*
X72536190Y-33853333D01*
X72536190Y-34234285D01*
X73012380Y-32710476D02*
X73012380Y-33281904D01*
X73012380Y-32996190D02*
X72012380Y-32996190D01*
X72155238Y-33091428D01*
X72250476Y-33186666D01*
X72298095Y-33281904D01*
X72012380Y-32377142D02*
X72012380Y-31758095D01*
X72393333Y-32091428D01*
X72393333Y-31948571D01*
X72440952Y-31853333D01*
X72488571Y-31805714D01*
X72583809Y-31758095D01*
X72821904Y-31758095D01*
X72917142Y-31805714D01*
X72964761Y-31853333D01*
X73012380Y-31948571D01*
X73012380Y-32234285D01*
X72964761Y-32329523D01*
X72917142Y-32377142D01*
G04 #@! TO.C,R14*
X155567142Y-97142380D02*
X155233809Y-96666190D01*
X154995714Y-97142380D02*
X154995714Y-96142380D01*
X155376666Y-96142380D01*
X155471904Y-96190000D01*
X155519523Y-96237619D01*
X155567142Y-96332857D01*
X155567142Y-96475714D01*
X155519523Y-96570952D01*
X155471904Y-96618571D01*
X155376666Y-96666190D01*
X154995714Y-96666190D01*
X156519523Y-97142380D02*
X155948095Y-97142380D01*
X156233809Y-97142380D02*
X156233809Y-96142380D01*
X156138571Y-96285238D01*
X156043333Y-96380476D01*
X155948095Y-96428095D01*
X157376666Y-96475714D02*
X157376666Y-97142380D01*
X157138571Y-96094761D02*
X156900476Y-96809047D01*
X157519523Y-96809047D01*
G04 #@! TO.C,R15*
X156512143Y-106277381D02*
X156178810Y-105801191D01*
X155940715Y-106277381D02*
X155940715Y-105277381D01*
X156321667Y-105277381D01*
X156416905Y-105325001D01*
X156464524Y-105372620D01*
X156512143Y-105467858D01*
X156512143Y-105610715D01*
X156464524Y-105705953D01*
X156416905Y-105753572D01*
X156321667Y-105801191D01*
X155940715Y-105801191D01*
X157464524Y-106277381D02*
X156893096Y-106277381D01*
X157178810Y-106277381D02*
X157178810Y-105277381D01*
X157083572Y-105420239D01*
X156988334Y-105515477D01*
X156893096Y-105563096D01*
X158369286Y-105277381D02*
X157893096Y-105277381D01*
X157845477Y-105753572D01*
X157893096Y-105705953D01*
X157988334Y-105658334D01*
X158226429Y-105658334D01*
X158321667Y-105705953D01*
X158369286Y-105753572D01*
X158416905Y-105848810D01*
X158416905Y-106086905D01*
X158369286Y-106182143D01*
X158321667Y-106229762D01*
X158226429Y-106277381D01*
X157988334Y-106277381D01*
X157893096Y-106229762D01*
X157845477Y-106182143D01*
G04 #@! TO.C,R16*
X76822380Y-57792857D02*
X76346190Y-58126190D01*
X76822380Y-58364285D02*
X75822380Y-58364285D01*
X75822380Y-57983333D01*
X75870000Y-57888095D01*
X75917619Y-57840476D01*
X76012857Y-57792857D01*
X76155714Y-57792857D01*
X76250952Y-57840476D01*
X76298571Y-57888095D01*
X76346190Y-57983333D01*
X76346190Y-58364285D01*
X76822380Y-56840476D02*
X76822380Y-57411904D01*
X76822380Y-57126190D02*
X75822380Y-57126190D01*
X75965238Y-57221428D01*
X76060476Y-57316666D01*
X76108095Y-57411904D01*
X75822380Y-55983333D02*
X75822380Y-56173809D01*
X75870000Y-56269047D01*
X75917619Y-56316666D01*
X76060476Y-56411904D01*
X76250952Y-56459523D01*
X76631904Y-56459523D01*
X76727142Y-56411904D01*
X76774761Y-56364285D01*
X76822380Y-56269047D01*
X76822380Y-56078571D01*
X76774761Y-55983333D01*
X76727142Y-55935714D01*
X76631904Y-55888095D01*
X76393809Y-55888095D01*
X76298571Y-55935714D01*
X76250952Y-55983333D01*
X76203333Y-56078571D01*
X76203333Y-56269047D01*
X76250952Y-56364285D01*
X76298571Y-56411904D01*
X76393809Y-56459523D01*
G04 #@! TO.C,R17*
X97142380Y-55252857D02*
X96666190Y-55586190D01*
X97142380Y-55824285D02*
X96142380Y-55824285D01*
X96142380Y-55443333D01*
X96190000Y-55348095D01*
X96237619Y-55300476D01*
X96332857Y-55252857D01*
X96475714Y-55252857D01*
X96570952Y-55300476D01*
X96618571Y-55348095D01*
X96666190Y-55443333D01*
X96666190Y-55824285D01*
X97142380Y-54300476D02*
X97142380Y-54871904D01*
X97142380Y-54586190D02*
X96142380Y-54586190D01*
X96285238Y-54681428D01*
X96380476Y-54776666D01*
X96428095Y-54871904D01*
X96142380Y-53967142D02*
X96142380Y-53300476D01*
X97142380Y-53729047D01*
G04 #@! TO.C,RV1*
X104814761Y-69182380D02*
X104481428Y-68706190D01*
X104243333Y-69182380D02*
X104243333Y-68182380D01*
X104624285Y-68182380D01*
X104719523Y-68230000D01*
X104767142Y-68277619D01*
X104814761Y-68372857D01*
X104814761Y-68515714D01*
X104767142Y-68610952D01*
X104719523Y-68658571D01*
X104624285Y-68706190D01*
X104243333Y-68706190D01*
X105100476Y-68182380D02*
X105433809Y-69182380D01*
X105767142Y-68182380D01*
X106624285Y-69182380D02*
X106052857Y-69182380D01*
X106338571Y-69182380D02*
X106338571Y-68182380D01*
X106243333Y-68325238D01*
X106148095Y-68420476D01*
X106052857Y-68468095D01*
G04 #@! TO.C,RV2*
X71794761Y-70452380D02*
X71461428Y-69976190D01*
X71223333Y-70452380D02*
X71223333Y-69452380D01*
X71604285Y-69452380D01*
X71699523Y-69500000D01*
X71747142Y-69547619D01*
X71794761Y-69642857D01*
X71794761Y-69785714D01*
X71747142Y-69880952D01*
X71699523Y-69928571D01*
X71604285Y-69976190D01*
X71223333Y-69976190D01*
X72080476Y-69452380D02*
X72413809Y-70452380D01*
X72747142Y-69452380D01*
X73032857Y-69547619D02*
X73080476Y-69500000D01*
X73175714Y-69452380D01*
X73413809Y-69452380D01*
X73509047Y-69500000D01*
X73556666Y-69547619D01*
X73604285Y-69642857D01*
X73604285Y-69738095D01*
X73556666Y-69880952D01*
X72985238Y-70452380D01*
X73604285Y-70452380D01*
G04 #@! TO.C,U1*
X91612380Y-40641904D02*
X92421904Y-40641904D01*
X92517142Y-40594285D01*
X92564761Y-40546666D01*
X92612380Y-40451428D01*
X92612380Y-40260952D01*
X92564761Y-40165714D01*
X92517142Y-40118095D01*
X92421904Y-40070476D01*
X91612380Y-40070476D01*
X92612380Y-39070476D02*
X92612380Y-39641904D01*
X92612380Y-39356190D02*
X91612380Y-39356190D01*
X91755238Y-39451428D01*
X91850476Y-39546666D01*
X91898095Y-39641904D01*
G04 #@! TO.C,U2*
X72192380Y-123351904D02*
X73001904Y-123351904D01*
X73097142Y-123304285D01*
X73144761Y-123256666D01*
X73192380Y-123161428D01*
X73192380Y-122970952D01*
X73144761Y-122875714D01*
X73097142Y-122828095D01*
X73001904Y-122780476D01*
X72192380Y-122780476D01*
X72287619Y-122351904D02*
X72240000Y-122304285D01*
X72192380Y-122209047D01*
X72192380Y-121970952D01*
X72240000Y-121875714D01*
X72287619Y-121828095D01*
X72382857Y-121780476D01*
X72478095Y-121780476D01*
X72620952Y-121828095D01*
X73192380Y-122399523D01*
X73192380Y-121780476D01*
G04 #@! TD*
M02*
